<?xml version="1.0" standalone="no"?>
<!DOCTYPE svg PUBLIC "-//W3C//DTD SVG 1.1//EN" "http://www.w3.org/Graphics/SVG/1.1/DTD/svg11.dtd" >
<svg xmlns="http://www.w3.org/2000/svg" width="100%" height="100%">
<metadata>
Created by FontXChange 20110222 at Mon Jul  6 23:54:10 2015
 By jasecoop
Copyright c 2015 by Grilli Type. All rights reserved.
</metadata>
<defs>
<font id="GTCinetypeTrial-Regular" horiz-adv-x="581" >
  <font-face 
    font-family="GTCinetypeTrial"
    font-weight="400"
    font-stretch="normal"
    units-per-em="1000"
    panose-1="2 0 5 3 2 0 0 2 0 4"
    ascent="770"
    descent="-230"
    x-height="527"
    cap-height="711"
    bbox="-50 -168 1245 762"
    underline-thickness="0"
    underline-position="0"
    stemh="68"
    stemv="68"
    unicode-range="U+0020-FB01"
  />
<missing-glyph horiz-adv-x="550" 
d="M422 342v158h-30v-158h30zM302 452v-110h30v110h-30zM50 0v700h450v-700h-450zM303 260h-30v-109h30v109zM295 453c-3 1 -6 2 -11 2c-15 0 -25 -11 -31 -21v18h-27v-110h29v50c0 18 8 35 30 35c5 0 7 0 10 -1v27zM439 452v-110h30v110h-30zM89 307v-29h44v-127h30v127h44
v29h-118zM427 151h29v158h-29v-158zM266 234v28c-3 1 -5 1 -10 1c-14 0 -25 -10 -30 -21v18h-28v-109h30v49c0 18 7 35 28 35c4 0 6 0 10 -1zM301 500v-29h32v29h-32zM438 500v-29h32v29h-32zM181 399c0 -13 -9 -33 -36 -33s-41 20 -41 53c0 32 14 55 40 55
c20 0 28 -13 31 -23l30 12c-7 19 -23 39 -60 39c-48 0 -74 -35 -74 -82c0 -46 25 -81 67 -81c18 0 35 6 43 20l4 -17h23v87h-67v-28h40v-2zM304 309h-32v-30h32v30zM376 342v158h-29v-158h29zM385 151h29c-1 5 -3 11 -3 21v40c0 34 -10 51 -46 51c-33 0 -50 -14 -51 -37h29
c1 10 8 15 21 15c15 0 18 -9 18 -22c-24 -2 -40 -5 -50 -8c-12 -5 -21 -14 -21 -29c0 -21 16 -34 38 -34c16 0 28 6 35 19c0 -6 0 -11 1 -16zM382 201v-3c0 -18 -10 -28 -24 -28c-11 0 -17 6 -17 13c0 9 7 14 23 16z" />
    <glyph glyph-name=".notdef" horiz-adv-x="550" 
d="M422 342v158h-30v-158h30zM302 452v-110h30v110h-30zM50 0v700h450v-700h-450zM303 260h-30v-109h30v109zM295 453c-3 1 -6 2 -11 2c-15 0 -25 -11 -31 -21v18h-27v-110h29v50c0 18 8 35 30 35c5 0 7 0 10 -1v27zM439 452v-110h30v110h-30zM89 307v-29h44v-127h30v127h44
v29h-118zM427 151h29v158h-29v-158zM266 234v28c-3 1 -5 1 -10 1c-14 0 -25 -10 -30 -21v18h-28v-109h30v49c0 18 7 35 28 35c4 0 6 0 10 -1zM301 500v-29h32v29h-32zM438 500v-29h32v29h-32zM181 399c0 -13 -9 -33 -36 -33s-41 20 -41 53c0 32 14 55 40 55
c20 0 28 -13 31 -23l30 12c-7 19 -23 39 -60 39c-48 0 -74 -35 -74 -82c0 -46 25 -81 67 -81c18 0 35 6 43 20l4 -17h23v87h-67v-28h40v-2zM304 309h-32v-30h32v30zM376 342v158h-29v-158h29zM385 151h29c-1 5 -3 11 -3 21v40c0 34 -10 51 -46 51c-33 0 -50 -14 -51 -37h29
c1 10 8 15 21 15c15 0 18 -9 18 -22c-24 -2 -40 -5 -50 -8c-12 -5 -21 -14 -21 -29c0 -21 16 -34 38 -34c16 0 28 6 35 19c0 -6 0 -11 1 -16zM382 201v-3c0 -18 -10 -28 -24 -28c-11 0 -17 6 -17 13c0 9 7 14 23 16z" />
    <glyph glyph-name="space" unicode=" " horiz-adv-x="295" 
 />
    <glyph glyph-name="Lslash" unicode="&#x141;" horiz-adv-x="522" 
d="M178 711v-629h324v-82h-407v711h83z" />
    <glyph glyph-name="lslash" unicode="&#x142;" horiz-adv-x="263" 
d="M173 0h-83v754h83v-754z" />
    <glyph glyph-name="Scaron" unicode="&#x160;" horiz-adv-x="602" 
d="M136 25l-60 42l-23 28l60 58l19 -24l41 -28l90 -27h86l75 29l24 28l14 29v60l-23 46l-47 27l-204 56l-75 53l-33 53l-14 82l27 85l64 67l92 30h105l116 -30l65 -40l-45 -70l-57 34l-90 24h-79l-60 -19l-37 -37l-15 -52l9 -44l13 -22l51 -37l211 -58l77 -53l32 -77v-97
l-25 -54l-48 -55l-109 -40h-118z" />
    <glyph glyph-name="scaron" unicode="&#x161;" horiz-adv-x="498" 
d="M151 362l20 -27l28 -14l153 -30l57 -38l39 -64v-85l-38 -58l-48 -34l-68 -20h-89l-85 22l-47 37l-23 26l58 56l19 -23l27 -21l62 -16h67l42 12l25 18l16 25v38l-17 29l-30 21l-144 29l-64 34l-42 58v89l33 57l45 35l62 17h85l82 -22l60 -41l-45 -67l-48 33l-56 17h-67
l-38 -11l-17 -14l-14 -24v-44z" />
    <glyph glyph-name="Yacute" unicode="&#xdd;" horiz-adv-x="566" 
d="M283 442l175 269h98l-232 -353v-358h-82v358l-232 353h98z" />
    <glyph glyph-name="yacute" unicode="&#xfd;" horiz-adv-x="552" 
d="M119 527l158 -359l158 359h92l-311 -689h-89l105 232l-207 457h94z" />
    <glyph glyph-name="Thorn" unicode="&#xde;" horiz-adv-x="612" 
d="M419 296h-241v-296h-83v711h296l93 -24l74 -74l29 -101l-27 -98l-49 -72zM178 629v-251h217l60 29l29 43l17 59l-17 60l-43 43l-59 17h-204z" />
    <glyph glyph-name="thorn" unicode="&#xfe;" horiz-adv-x="594" 
d="M172 474l22 23l62 38h90l104 -48l68 -92l21 -71v-119l-21 -73l-68 -92l-100 -48h-89l-60 22l-28 18v-194h-83v689h82v-53zM173 137l21 -26l38 -25l41 -13h64l59 32l48 64l12 47v97l-12 45l-48 65l-63 30h-66l-65 -46l-29 -43v-227z" />
    <glyph glyph-name="Eth" unicode="&#xd0;" horiz-adv-x="663" 
d="M178 82h162l82 34l46 47l33 65l19 72v111l-18 72l-34 65l-47 48l-80 33h-163v-547zM95 0v711h261l112 -44l69 -70l44 -88l22 -88v-131l-22 -88l-44 -88l-69 -70l-112 -44h-261z" />
    <glyph glyph-name="Zcaron" unicode="&#x17d;" horiz-adv-x="558" 
d="M50 711h469v-64l-379 -565h388v-82h-498v64l380 565h-360v82z" />
    <glyph glyph-name="zcaron" unicode="&#x17e;" horiz-adv-x="503" 
d="M453 0h-403v66l287 380h-272v81h383v-66l-285 -379h290v-82z" />
    <glyph glyph-name="exclam" unicode="!" horiz-adv-x="279" 
d="M80 0v123h119v-123h-119z" />
    <glyph glyph-name="comma" unicode="," horiz-adv-x="279" 
d="M121 0l-41 16v107h119v-111l-84 -146l-50 29z" />
    <glyph glyph-name="hyphen" unicode="-" horiz-adv-x="480" 
d="M70 270v78h340v-78h-340z" />
    <glyph glyph-name="period" unicode="." horiz-adv-x="279" 
d="M80 0v123h119v-123h-119z" />
    <glyph glyph-name="zero" unicode="0" horiz-adv-x="643" 
d="M369 -8h-95l-91 43l-70 71l-36 86l-17 91v145l17 91l36 86l70 71l91 43h95l91 -43l70 -71l36 -86l17 -91v-145l-17 -91l-36 -86l-70 -71zM353 74l58 28l50 53l24 58l15 77v132l-14 73l-24 62l-50 51l-60 29h-61l-60 -29l-50 -51l-24 -62l-14 -73v-132l15 -77l24 -58
l50 -53l58 -28h63z" />
    <glyph glyph-name="one" unicode="1" horiz-adv-x="395" 
d="M47 513l-37 74l245 124h45v-711h-83v601z" />
    <glyph glyph-name="two" unicode="2" horiz-adv-x="505" 
d="M94 567l-59 59l44 46l105 47h108l104 -51l66 -104v-96l-44 -90l-268 -296h320v-82h-433v74l311 349l31 62v55l-40 65l-67 32h-72l-71 -34z" />
    <glyph glyph-name="three" unicode="3" horiz-adv-x="541" 
d="M254 372h-64v66l139 191h-251v82h361v-65l-148 -204l96 -36l70 -70l29 -77v-73l-29 -78l-65 -69l-106 -47h-106l-101 42l-49 47l59 59l38 -38l68 -28h74l75 34l40 42l19 47v50l-18 44l-44 46z" />
    <glyph glyph-name="four" unicode="4" horiz-adv-x="551" 
d="M414 266h107v-82h-107v-184h-83v184h-321v63l326 464h78v-445zM331 266v297l-215 -297h215z" />
    <glyph glyph-name="five" unicode="5" horiz-adv-x="566" 
d="M207 370l-62 -21l-68 49l43 313h336v-82h-264l-30 -191l32 14h121l92 -36l70 -70l29 -77v-83l-29 -78l-65 -69l-106 -47h-106l-101 42l-49 47l59 59l38 -38l68 -28h74l75 34l40 43l19 47v58l-18 44l-46 47l-61 23h-91z" />
    <glyph glyph-name="six" unicode="6" horiz-adv-x="580" 
d="M164 315l-16 -28v-82l14 -51l34 -48l64 -32h80l64 32l27 39l16 53v63l-13 44l-29 42l-65 34h-62l-67 -28zM148 400l32 28l84 35h94l104 -52l49 -72l19 -69v-83l-20 -73l-50 -71l-102 -51h-117l-103 51l-52 75l-21 75v300l24 86l68 91l104 49h99l100 -47l44 -42l-59 -59
l-33 32l-70 34h-63l-67 -32l-47 -62l-17 -64v-79z" />
    <glyph glyph-name="seven" unicode="7" horiz-adv-x="467" 
d="M163 0h-93l285 629h-325v82h422v-60z" />
    <glyph glyph-name="eight" unicode="8" horiz-adv-x="583" 
d="M337 425l43 15l31 31l13 39v44l-14 40l-31 27l-58 16h-59l-58 -16l-31 -27l-14 -40v-44l13 -39l31 -31l43 -15h91zM340 345h-97l-46 -17l-41 -42l-13 -43v-67l11 -43l42 -40l60 -19h71l60 19l42 40l11 43v67l-13 43l-41 42zM523 255v-93l-21 -73l-71 -69l-93 -28h-93
l-93 28l-71 69l-21 73v93l24 74l63 59l-44 38l-27 69v72l25 74l61 51l91 27h77l91 -27l61 -51l25 -74v-72l-27 -69l-44 -38l63 -59z" />
    <glyph glyph-name="nine" unicode="9" horiz-adv-x="580" 
d="M418 399l14 28v79l-14 51l-34 48l-64 32h-80l-64 -32l-27 -39l-16 -53v-60l13 -44l29 -42l65 -34h65l67 28zM432 314l-32 -28l-83 -35h-95l-104 52l-49 72l-19 69v80l20 73l50 71l102 51h117l103 -51l52 -75l21 -75v-305l-24 -85l-68 -89l-104 -47h-99l-100 47l-44 42
l59 59l33 -32l70 -34h63l67 30l47 60l17 63v87z" />
    <glyph glyph-name="colon" unicode=":" horiz-adv-x="279" 
d="M80 0v123h119v-123h-119z" />
    <glyph glyph-name="semicolon" unicode=";" horiz-adv-x="279" 
d="M121 0l-41 16v107h119v-111l-84 -146l-50 29z" />
    <glyph glyph-name="question" unicode="?" horiz-adv-x="279" 
d="M80 0v123h119v-123h-119z" />
    <glyph glyph-name="A" unicode="A" horiz-adv-x="624" 
d="M279 711h66l259 -711h-88l-76 214h-256l-76 -214h-88zM212 295h200l-100 291z" />
    <glyph glyph-name="B" unicode="B" horiz-adv-x="639" 
d="M405 82l49 22l30 35l15 60l-15 64l-25 42l-53 32h-228v-255h227zM95 0v711h297l92 -25l66 -72l21 -96l-20 -79l-32 -46l-30 -16l30 -19l43 -62l22 -97l-23 -97l-52 -63l-83 -39h-331zM384 629h-206v-210h232l50 34l14 20l12 45l-12 56l-35 39z" />
    <glyph glyph-name="C" unicode="C" horiz-adv-x="640" 
d="M402 -8h-110l-107 47l-67 68l-44 89l-19 86v147l19 88l44 89l69 67l105 46h110l104 -41l45 -35l39 -46l-59 -56l-35 39l-31 25l-75 32h-84l-71 -32l-48 -48l-34 -67l-15 -67v-134l15 -67l34 -66l47 -48l72 -34h84l76 32l31 25l34 39l59 -56l-39 -46l-45 -35z" />
    <glyph glyph-name="D" unicode="D" horiz-adv-x="663" 
d="M178 82h162l82 34l46 47l33 65l19 72v111l-18 72l-34 65l-47 48l-80 33h-163v-547zM95 0v711h261l112 -44l69 -70l44 -88l22 -88v-131l-22 -88l-44 -88l-69 -70l-112 -44h-261z" />
    <glyph glyph-name="E" unicode="E" 
d="M541 629h-363v-210h251v-82h-251v-255h363v-82h-446v711h446v-82z" />
    <glyph glyph-name="F" unicode="F" horiz-adv-x="537" 
d="M517 629h-339v-210h241v-82h-241v-337h-83v711h422v-82z" />
    <glyph glyph-name="G" unicode="G" horiz-adv-x="677" 
d="M536 545l-33 40l-33 25l-77 27h-82l-71 -32l-48 -48l-34 -67l-15 -67v-134l15 -67l34 -66l47 -48l72 -34h84l57 25l47 41l33 53l7 36v49h-174v82h257v-135l-11 -59l-44 -74l-68 -61l-90 -39h-112l-107 47l-67 68l-44 89l-19 86v147l19 88l44 89l69 67l105 46h110l104 -38
l47 -36l39 -47z" />
    <glyph glyph-name="H" unicode="H" horiz-adv-x="679" 
d="M178 419h323v292h83v-711h-83v337h-323v-337h-83v711h83v-292z" />
    <glyph glyph-name="I" unicode="I" horiz-adv-x="273" 
d="M178 711v-711h-83v711h83z" />
    <glyph glyph-name="J" unicode="J" horiz-adv-x="503" 
d="M181 -8l-68 27l-72 70l-21 90l80 22l15 -68l46 -46l35 -13h38l35 14l46 45l15 62v516h83v-527l-24 -94l-70 -71l-68 -27h-70z" />
    <glyph glyph-name="K" unicode="K" horiz-adv-x="665" 
d="M365 419l285 -419h-103l-240 360l-129 -136v-224h-83v711h83v-369l344 369h118z" />
    <glyph glyph-name="L" unicode="L" horiz-adv-x="522" 
d="M178 711v-629h324v-82h-407v711h83z" />
    <glyph glyph-name="M" unicode="M" horiz-adv-x="840" 
d="M420 177l243 534h82v-711h-83v521l-200 -442h-84l-200 442v-521h-83v711h82z" />
    <glyph glyph-name="N" unicode="N" horiz-adv-x="738" 
d="M95 0v711h71l394 -576v576h83v-711h-89l-376 552v-552h-83z" />
    <glyph glyph-name="O" unicode="O" horiz-adv-x="704" 
d="M407 -8h-110l-107 47l-67 68l-44 89l-19 86v147l19 88l44 89l69 67l105 46h110l105 -46l69 -67l44 -89l19 -88v-147l-19 -86l-44 -89l-67 -68zM239 108l74 -34h80l72 34l47 48l34 66l15 67v134l-15 67l-34 67l-48 48l-71 32h-82l-71 -32l-48 -48l-34 -67l-15 -68v-134
l15 -65l34 -67z" />
    <glyph glyph-name="P" unicode="P" horiz-adv-x="612" 
d="M419 296h-241v-296h-83v711h296l93 -24l74 -74l29 -101l-27 -98l-49 -72zM178 629v-251h217l60 29l29 43l17 59l-17 60l-43 43l-59 17h-204z" />
    <glyph glyph-name="Q" unicode="Q" horiz-adv-x="704" 
d="M407 -8h-110l-107 47l-67 68l-44 89l-19 86v147l19 88l44 89l69 67l105 46h110l105 -46l69 -67l44 -89l19 -88v-147l-19 -86l-44 -89l-41 -41l48 -56l-62 -54l-55 65zM392 74l24 11l-67 78l62 53l76 -87l25 27l34 67l15 65v134l-16 69l-33 66l-48 48l-71 32h-82l-71 -32
l-48 -48l-34 -67l-15 -67v-134l15 -67l34 -66l47 -48l72 -34h81z" />
    <glyph glyph-name="R" unicode="R" horiz-adv-x="635" 
d="M95 711h296l93 -24l74 -74l29 -101l-27 -98l-49 -72l-59 -31l138 -311h-92l-129 296h-191v-296h-83v711zM178 629v-251h217l60 29l29 43l17 59l-17 60l-43 43l-59 17h-204z" />
    <glyph glyph-name="S" unicode="S" horiz-adv-x="602" 
d="M136 25l-60 42l-23 28l60 58l19 -24l41 -28l90 -27h86l75 29l24 28l14 29v60l-23 46l-47 27l-204 56l-75 53l-33 53l-14 82l27 85l64 67l92 30h105l116 -30l65 -40l-45 -70l-57 34l-90 24h-79l-60 -19l-37 -37l-15 -52l9 -44l13 -22l51 -37l211 -58l77 -53l32 -77v-97
l-25 -54l-48 -55l-109 -40h-118z" />
    <glyph glyph-name="T" unicode="T" horiz-adv-x="515" 
d="M297 629v-629h-83v629h-189v82h465v-82h-193z" />
    <glyph glyph-name="U" unicode="U" horiz-adv-x="709" 
d="M399 -8h-89l-128 47l-70 93l-22 71v508h83v-497l13 -45l48 -63l89 -32h63l89 32l48 63l13 45v497h83v-508l-22 -71l-70 -93z" />
    <glyph glyph-name="V" unicode="V" horiz-adv-x="636" 
d="M357 0h-78l-269 711h88l220 -585l220 585h88z" />
    <glyph glyph-name="W" unicode="W" horiz-adv-x="870" 
d="M466 682l164 -534l140 563h85l-182 -711h-79l-159 514l-159 -514h-79l-182 711h85l140 -563l164 534h62z" />
    <glyph glyph-name="X" unicode="X" horiz-adv-x="656" 
d="M117 711l211 -289l211 289h102l-262 -357l260 -354h-102l-209 288l-209 -288h-102l260 354l-262 357h102z" />
    <glyph glyph-name="Y" unicode="Y" horiz-adv-x="566" 
d="M283 442l175 269h98l-232 -353v-358h-82v358l-232 353h98z" />
    <glyph glyph-name="Z" unicode="Z" horiz-adv-x="558" 
d="M50 711h469v-64l-379 -565h388v-82h-498v64l380 565h-360v82z" />
    <glyph glyph-name="underscore" unicode="_" horiz-adv-x="480" 
d="M70 270v78h340v-78h-340z" />
    <glyph glyph-name="a" unicode="a" horiz-adv-x="565" 
d="M346 102l41 43l10 31v37l-21 22l-31 16l-49 14h-45l-66 -18l-39 -39l-8 -35v-27l31 -44l23 -14l47 -14h32zM131 400l-57 59l28 26l48 31l64 19h93l72 -18l74 -50l27 -68v-303l39 -56l-67 -48l-48 72l-23 -26l-92 -46h-62l-68 21l-48 28l-56 81v58l14 68l74 74l99 25h64
l67 -22l24 -17v76l-11 30l-42 27l-49 12h-71l-43 -14l-31 -20z" />
    <glyph glyph-name="b" unicode="b" horiz-adv-x="594" 
d="M173 474l22 23l61 38h90l104 -48l68 -92l21 -71v-119l-21 -73l-68 -92l-100 -48h-89l-60 22l-28 18v-32h-83v754h83v-280zM173 137l21 -26l38 -25l41 -13h64l59 32l48 64l12 47v97l-12 45l-48 65l-63 30h-66l-65 -46l-29 -43v-227z" />
    <glyph glyph-name="c" unicode="c" horiz-adv-x="513" 
d="M414 389l-50 50l-45 14h-62l-60 -31l-47 -64l-12 -47v-96l13 -46l48 -65l61 -30h59l43 15l52 49l58 -57l-65 -64l-78 -25h-85l-100 48l-68 92l-21 71v119l21 73l68 92l100 48h85l78 -25l66 -66z" />
    <glyph glyph-name="d" unicode="d" horiz-adv-x="594" 
d="M422 53l-22 -23l-62 -38h-90l-104 48l-68 92l-21 71v119l21 73l68 92l100 48h89l60 -22l28 -18v259h83v-754h-82v53zM421 390l-21 26l-38 25l-41 13h-64l-59 -32l-48 -64l-12 -47v-97l12 -45l48 -65l63 -30h66l65 46l29 43v227z" />
    <glyph glyph-name="e" unicode="e" horiz-adv-x="574" 
d="M138 223v-10l13 -44l48 -65l61 -30h60l68 17l52 33l44 -66l-65 -43l-92 -23h-83l-100 48l-68 92l-21 71v119l21 73l68 92l100 48h89l101 -48l67 -92l23 -67v-105h-386zM138 305h303v13l-13 38l-48 65l-61 32h-62l-60 -31l-47 -64l-12 -44v-9z" />
    <glyph glyph-name="f" unicode="f" horiz-adv-x="403" 
d="M120 0v432h-95v82h95v140l55 82l84 26h40l89 -20l-21 -81l-74 19h-27l-38 -13l-25 -37v-116h134v-82h-134v-432h-83z" />
    <glyph glyph-name="g" unicode="g" horiz-adv-x="594" 
d="M421 390l-21 26l-38 25l-41 13h-64l-59 -32l-48 -64l-12 -47v-73l12 -43l46 -63l65 -26h66l65 46l29 47v191zM329 -168h-88l-71 19l-49 32l-28 27l58 59l25 -25l25 -17l48 -13h71l46 17l43 29l12 30v92l-21 -20l-62 -38h-90l-102 40l-70 92l-21 71v95l21 73l68 92l100 48
h89l60 -22l28 -18v32h83v-546l-25 -73l-76 -51z" />
    <glyph glyph-name="h" unicode="h" 
d="M90 0v754h83v-277l24 20l67 38h92l84 -24l61 -82v-429h-83v397l-25 39l-54 17h-64l-70 -46l-32 -47v-360h-83z" />
    <glyph glyph-name="i" unicode="i" horiz-adv-x="263" 
d="M90 0v527h83v-527h-83zM72 631v123h119v-123h-119z" />
    <glyph glyph-name="j" unicode="j" horiz-adv-x="273" 
d="M183 -52l-51 -81l-84 -29h-44l-54 14l21 79l39 -10h27l39 13l24 39v554h83v-579zM82 631v123h119v-123h-119z" />
    <glyph glyph-name="k" unicode="k" horiz-adv-x="552" 
d="M173 304l223 223h116l-216 -211l226 -316h-101l-182 259l-66 -64v-195h-83v754h83v-450z" />
    <glyph glyph-name="l" unicode="l" horiz-adv-x="263" 
d="M173 0h-83v754h83v-754z" />
    <glyph glyph-name="m" unicode="m" horiz-adv-x="903" 
d="M415 0v393l-25 41l-51 19h-64l-72 -46l-30 -43v-364h-83v527h83v-52l25 22l66 38h92l81 -24l38 -52l44 38l70 38h92l81 -24l61 -82v-429h-83v397l-25 39l-51 17h-64l-70 -46l-32 -47v-360h-83z" />
    <glyph glyph-name="n" unicode="n" horiz-adv-x="586" 
d="M173 527v-52l25 22l66 38h92l89 -24l61 -82v-429h-83v397l-25 39l-59 17h-64l-72 -46l-30 -43v-364h-83v527h83z" />
    <glyph glyph-name="o" unicode="o" horiz-adv-x="558" 
d="M240 73h78l59 29l30 45l13 67v100l-13 65l-31 44l-58 30h-78l-60 -30l-29 -44l-13 -65v-100l13 -67l30 -45zM332 -8h-106l-101 48l-50 74l-20 90v118l20 90l50 74l101 49h106l101 -49l50 -74l20 -90v-118l-20 -90l-50 -74z" />
    <glyph glyph-name="p" unicode="p" horiz-adv-x="594" 
d="M172 474l22 23l62 38h90l104 -48l68 -92l21 -71v-119l-21 -73l-68 -92l-100 -48h-89l-60 22l-28 18v-194h-83v689h82v-53zM173 137l21 -26l38 -25l41 -13h64l59 32l48 64l12 47v97l-12 45l-48 65l-63 30h-66l-65 -46l-29 -43v-227z" />
    <glyph glyph-name="q" unicode="q" horiz-adv-x="594" 
d="M421 53l-22 -23l-61 -38h-90l-104 48l-68 92l-21 71v119l21 73l68 92l100 48h89l60 -22l28 -18v32h83v-689h-83v215zM421 390l-21 26l-38 25l-41 13h-64l-59 -32l-48 -64l-12 -47v-97l12 -45l48 -65l63 -30h66l65 46l29 43v227z" />
    <glyph glyph-name="r" unicode="r" horiz-adv-x="404" 
d="M369 442l-40 11h-43l-55 -26l-41 -46l-22 -48v-333h-83v527h83v-61l38 37l68 32h65l50 -14z" />
    <glyph glyph-name="s" unicode="s" horiz-adv-x="498" 
d="M151 362l20 -27l28 -14l153 -30l57 -38l39 -64v-85l-38 -58l-48 -34l-68 -20h-89l-85 22l-47 37l-23 26l58 56l19 -23l27 -21l62 -16h67l42 12l25 18l16 25v38l-17 29l-30 21l-144 29l-64 34l-42 58v89l33 57l45 35l62 17h85l82 -22l60 -41l-45 -67l-48 33l-56 17h-67
l-38 -11l-17 -14l-14 -24v-44z" />
    <glyph glyph-name="t" unicode="t" horiz-adv-x="414" 
d="M203 698v-184h138v-82h-138v-308l25 -36l36 -14h28l71 18l21 -79l-93 -21h-46l-70 26l-55 79v335h-95v82h95v184h83z" />
    <glyph glyph-name="u" unicode="u" 
d="M249 73h57l71 47l31 43v364h83v-527h-82v53l-26 -23l-66 -38h-81l-91 24l-65 84v427h83v-397l29 -42z" />
    <glyph glyph-name="v" unicode="v" horiz-adv-x="534" 
d="M229 0l-209 527h88l159 -408l159 408h88l-209 -527h-76z" />
    <glyph glyph-name="w" unicode="w" horiz-adv-x="768" 
d="M220 138l130 369h68l130 -369l108 389h87l-153 -527h-78l-128 368l-128 -368h-78l-153 527h87z" />
    <glyph glyph-name="x" unicode="x" horiz-adv-x="552" 
d="M276 198l-146 -198h-105l200 264l-198 263h104l145 -196l145 196h104l-198 -263l200 -264h-105z" />
    <glyph glyph-name="y" unicode="y" horiz-adv-x="552" 
d="M119 527l158 -359l158 359h92l-311 -689h-89l105 232l-207 457h94z" />
    <glyph glyph-name="z" unicode="z" horiz-adv-x="503" 
d="M453 0h-403v66l287 380h-272v81h383v-66l-285 -379h290v-82z" />
    <glyph glyph-name="Adieresis" unicode="&#xc4;" horiz-adv-x="624" 
d="M279 711h66l259 -711h-88l-76 214h-256l-76 -214h-88zM212 295h200l-100 291z" />
    <glyph glyph-name="Aring" unicode="&#xc5;" horiz-adv-x="624" 
d="M279 711h66l259 -711h-88l-76 214h-256l-76 -214h-88zM212 295h200l-100 291z" />
    <glyph glyph-name="Ccedilla" unicode="&#xc7;" horiz-adv-x="640" 
d="M402 -8h-110l-107 47l-67 68l-44 89l-19 86v147l19 88l44 89l69 67l105 46h110l104 -41l45 -35l39 -46l-59 -56l-35 39l-31 25l-75 32h-84l-71 -32l-48 -48l-34 -67l-15 -67v-134l15 -67l34 -66l47 -48l72 -34h84l76 32l31 25l34 39l59 -56l-39 -46l-45 -35z" />
    <glyph glyph-name="Eacute" unicode="&#xc9;" 
d="M541 629h-363v-210h251v-82h-251v-255h363v-82h-446v711h446v-82z" />
    <glyph glyph-name="Ntilde" unicode="&#xd1;" horiz-adv-x="738" 
d="M95 0v711h71l394 -576v576h83v-711h-89l-376 552v-552h-83z" />
    <glyph glyph-name="Odieresis" unicode="&#xd6;" horiz-adv-x="704" 
d="M407 -8h-110l-107 47l-67 68l-44 89l-19 86v147l19 88l44 89l69 67l105 46h110l105 -46l69 -67l44 -89l19 -88v-147l-19 -86l-44 -89l-67 -68zM239 108l74 -34h80l72 34l47 48l34 66l15 67v134l-15 67l-34 67l-48 48l-71 32h-82l-71 -32l-48 -48l-34 -67l-15 -68v-134
l15 -65l34 -67z" />
    <glyph glyph-name="Udieresis" unicode="&#xdc;" horiz-adv-x="709" 
d="M399 -8h-89l-128 47l-70 93l-22 71v508h83v-497l13 -45l48 -63l89 -32h63l89 32l48 63l13 45v497h83v-508l-22 -71l-70 -93z" />
    <glyph glyph-name="aacute" unicode="&#xe1;" horiz-adv-x="565" 
d="M346 102l41 43l10 31v37l-21 22l-31 16l-49 14h-45l-66 -18l-39 -39l-8 -35v-27l31 -44l23 -14l47 -14h32zM131 400l-57 59l28 26l48 31l64 19h93l72 -18l74 -50l27 -68v-303l39 -56l-67 -48l-48 72l-23 -26l-92 -46h-62l-68 21l-48 28l-56 81v58l14 68l74 74l99 25h64
l67 -22l24 -17v76l-11 30l-42 27l-49 12h-71l-43 -14l-31 -20z" />
    <glyph glyph-name="agrave" unicode="&#xe0;" horiz-adv-x="565" 
d="M346 102l41 43l10 31v37l-21 22l-31 16l-49 14h-45l-66 -18l-39 -39l-8 -35v-27l31 -44l23 -14l47 -14h32zM131 400l-57 59l28 26l48 31l64 19h93l72 -18l74 -50l27 -68v-303l39 -56l-67 -48l-48 72l-23 -26l-92 -46h-62l-68 21l-48 28l-56 81v58l14 68l74 74l99 25h64
l67 -22l24 -17v76l-11 30l-42 27l-49 12h-71l-43 -14l-31 -20z" />
    <glyph glyph-name="acircumflex" unicode="&#xe2;" horiz-adv-x="565" 
d="M346 102l41 43l10 31v37l-21 22l-31 16l-49 14h-45l-66 -18l-39 -39l-8 -35v-27l31 -44l23 -14l47 -14h32zM131 400l-57 59l28 26l48 31l64 19h93l72 -18l74 -50l27 -68v-303l39 -56l-67 -48l-48 72l-23 -26l-92 -46h-62l-68 21l-48 28l-56 81v58l14 68l74 74l99 25h64
l67 -22l24 -17v76l-11 30l-42 27l-49 12h-71l-43 -14l-31 -20z" />
    <glyph glyph-name="adieresis" unicode="&#xe4;" horiz-adv-x="565" 
d="M346 102l41 43l10 31v37l-21 22l-31 16l-49 14h-45l-66 -18l-39 -39l-8 -35v-27l31 -44l23 -14l47 -14h32zM131 400l-57 59l28 26l48 31l64 19h93l72 -18l74 -50l27 -68v-303l39 -56l-67 -48l-48 72l-23 -26l-92 -46h-62l-68 21l-48 28l-56 81v58l14 68l74 74l99 25h64
l67 -22l24 -17v76l-11 30l-42 27l-49 12h-71l-43 -14l-31 -20z" />
    <glyph glyph-name="atilde" unicode="&#xe3;" horiz-adv-x="565" 
d="M346 102l41 43l10 31v37l-21 22l-31 16l-49 14h-45l-66 -18l-39 -39l-8 -35v-27l31 -44l23 -14l47 -14h32zM131 400l-57 59l28 26l48 31l64 19h93l72 -18l74 -50l27 -68v-303l39 -56l-67 -48l-48 72l-23 -26l-92 -46h-62l-68 21l-48 28l-56 81v58l14 68l74 74l99 25h64
l67 -22l24 -17v76l-11 30l-42 27l-49 12h-71l-43 -14l-31 -20z" />
    <glyph glyph-name="aring" unicode="&#xe5;" horiz-adv-x="565" 
d="M346 102l41 43l10 31v37l-21 22l-31 16l-49 14h-45l-66 -18l-39 -39l-8 -35v-27l31 -44l23 -14l47 -14h32zM131 400l-57 59l28 26l48 31l64 19h93l72 -18l74 -50l27 -68v-303l39 -56l-67 -48l-48 72l-23 -26l-92 -46h-62l-68 21l-48 28l-56 81v58l14 68l74 74l99 25h64
l67 -22l24 -17v76l-11 30l-42 27l-49 12h-71l-43 -14l-31 -20z" />
    <glyph glyph-name="ccedilla" unicode="&#xe7;" horiz-adv-x="513" 
d="M414 389l-50 50l-45 14h-62l-60 -31l-47 -64l-12 -47v-96l13 -46l48 -65l61 -30h59l43 15l52 49l58 -57l-65 -64l-78 -25h-85l-100 48l-68 92l-21 71v119l21 73l68 92l100 48h85l78 -25l66 -66z" />
    <glyph glyph-name="eacute" unicode="&#xe9;" horiz-adv-x="574" 
d="M138 223v-10l13 -44l48 -65l61 -30h60l68 17l52 33l44 -66l-65 -43l-92 -23h-83l-100 48l-68 92l-21 71v119l21 73l68 92l100 48h89l101 -48l67 -92l23 -67v-105h-386zM138 305h303v13l-13 38l-48 65l-61 32h-62l-60 -31l-47 -64l-12 -44v-9z" />
    <glyph glyph-name="egrave" unicode="&#xe8;" horiz-adv-x="574" 
d="M138 223v-10l13 -44l48 -65l61 -30h60l68 17l52 33l44 -66l-65 -43l-92 -23h-83l-100 48l-68 92l-21 71v119l21 73l68 92l100 48h89l101 -48l67 -92l23 -67v-105h-386zM138 305h303v13l-13 38l-48 65l-61 32h-62l-60 -31l-47 -64l-12 -44v-9z" />
    <glyph glyph-name="ecircumflex" unicode="&#xea;" horiz-adv-x="574" 
d="M138 223v-10l13 -44l48 -65l61 -30h60l68 17l52 33l44 -66l-65 -43l-92 -23h-83l-100 48l-68 92l-21 71v119l21 73l68 92l100 48h89l101 -48l67 -92l23 -67v-105h-386zM138 305h303v13l-13 38l-48 65l-61 32h-62l-60 -31l-47 -64l-12 -44v-9z" />
    <glyph glyph-name="edieresis" unicode="&#xeb;" horiz-adv-x="574" 
d="M138 223v-10l13 -44l48 -65l61 -30h60l68 17l52 33l44 -66l-65 -43l-92 -23h-83l-100 48l-68 92l-21 71v119l21 73l68 92l100 48h89l101 -48l67 -92l23 -67v-105h-386zM138 305h303v13l-13 38l-48 65l-61 32h-62l-60 -31l-47 -64l-12 -44v-9z" />
    <glyph glyph-name="iacute" unicode="&#xed;" horiz-adv-x="263" 
d="M90 0v527h83v-527h-83zM72 631v123h119v-123h-119z" />
    <glyph glyph-name="igrave" unicode="&#xec;" horiz-adv-x="263" 
d="M90 0v527h83v-527h-83zM72 631v123h119v-123h-119z" />
    <glyph glyph-name="icircumflex" unicode="&#xee;" horiz-adv-x="263" 
d="M90 0v527h83v-527h-83zM72 631v123h119v-123h-119z" />
    <glyph glyph-name="idieresis" unicode="&#xef;" horiz-adv-x="263" 
d="M90 0v527h83v-527h-83zM72 631v123h119v-123h-119z" />
    <glyph glyph-name="ntilde" unicode="&#xf1;" horiz-adv-x="586" 
d="M173 527v-52l25 22l66 38h92l89 -24l61 -82v-429h-83v397l-25 39l-59 17h-64l-72 -46l-30 -43v-364h-83v527h83z" />
    <glyph glyph-name="oacute" unicode="&#xf3;" horiz-adv-x="558" 
d="M240 73h78l59 29l30 45l13 67v100l-13 65l-31 44l-58 30h-78l-60 -30l-29 -44l-13 -65v-100l13 -67l30 -45zM332 -8h-106l-101 48l-50 74l-20 90v118l20 90l50 74l101 49h106l101 -49l50 -74l20 -90v-118l-20 -90l-50 -74z" />
    <glyph glyph-name="ograve" unicode="&#xf2;" horiz-adv-x="558" 
d="M240 73h78l59 29l30 45l13 67v100l-13 65l-31 44l-58 30h-78l-60 -30l-29 -44l-13 -65v-100l13 -67l30 -45zM332 -8h-106l-101 48l-50 74l-20 90v118l20 90l50 74l101 49h106l101 -49l50 -74l20 -90v-118l-20 -90l-50 -74z" />
    <glyph glyph-name="ocircumflex" unicode="&#xf4;" horiz-adv-x="558" 
d="M240 73h78l59 29l30 45l13 67v100l-13 65l-31 44l-58 30h-78l-60 -30l-29 -44l-13 -65v-100l13 -67l30 -45zM332 -8h-106l-101 48l-50 74l-20 90v118l20 90l50 74l101 49h106l101 -49l50 -74l20 -90v-118l-20 -90l-50 -74z" />
    <glyph glyph-name="odieresis" unicode="&#xf6;" horiz-adv-x="558" 
d="M240 73h78l59 29l30 45l13 67v100l-13 65l-31 44l-58 30h-78l-60 -30l-29 -44l-13 -65v-100l13 -67l30 -45zM332 -8h-106l-101 48l-50 74l-20 90v118l20 90l50 74l101 49h106l101 -49l50 -74l20 -90v-118l-20 -90l-50 -74z" />
    <glyph glyph-name="otilde" unicode="&#xf5;" horiz-adv-x="558" 
d="M240 73h78l59 29l30 45l13 67v100l-13 65l-31 44l-58 30h-78l-60 -30l-29 -44l-13 -65v-100l13 -67l30 -45zM332 -8h-106l-101 48l-50 74l-20 90v118l20 90l50 74l101 49h106l101 -49l50 -74l20 -90v-118l-20 -90l-50 -74z" />
    <glyph glyph-name="uacute" unicode="&#xfa;" 
d="M249 73h57l71 47l31 43v364h83v-527h-82v53l-26 -23l-66 -38h-81l-91 24l-65 84v427h83v-397l29 -42z" />
    <glyph glyph-name="ugrave" unicode="&#xf9;" 
d="M249 73h57l71 47l31 43v364h83v-527h-82v53l-26 -23l-66 -38h-81l-91 24l-65 84v427h83v-397l29 -42z" />
    <glyph glyph-name="ucircumflex" unicode="&#xfb;" 
d="M249 73h57l71 47l31 43v364h83v-527h-82v53l-26 -23l-66 -38h-81l-91 24l-65 84v427h83v-397l29 -42z" />
    <glyph glyph-name="udieresis" unicode="&#xfc;" 
d="M249 73h57l71 47l31 43v364h83v-527h-82v53l-26 -23l-66 -38h-81l-91 24l-65 84v427h83v-397l29 -42z" />
    <glyph glyph-name="germandbls" unicode="&#xdf;" horiz-adv-x="996" 
d="M151 362l20 -27l28 -14l153 -30l57 -38l39 -64v-85l-38 -58l-48 -34l-68 -20h-89l-85 22l-47 37l-23 26l58 56l19 -23l27 -21l62 -16h67l42 12l25 18l16 25v38l-17 29l-30 21l-144 29l-64 34l-42 58v89l33 57l45 35l62 17h85l82 -22l60 -41l-45 -67l-48 33l-56 17h-67
l-38 -11l-17 -14l-14 -24v-44zM649 362l20 -27l28 -14l153 -30l57 -38l39 -64v-85l-38 -58l-48 -34l-68 -20h-89l-85 22l-47 37l-23 26l58 56l19 -23l27 -21l62 -16h67l42 12l25 18l16 25v38l-17 29l-30 21l-144 29l-64 34l-42 58v89l33 57l45 35l62 17h85l82 -22l60 -41
l-45 -67l-48 33l-56 17h-67l-38 -11l-17 -14l-14 -24v-44z" />
    <glyph glyph-name="AE" unicode="&#xc6;" horiz-adv-x="1205" 
d="M279 711h66l259 -711h-88l-76 214h-256l-76 -214h-88zM212 295h200l-100 291zM1165 629h-363v-210h251v-82h-251v-255h363v-82h-446v711h446v-82z" />
    <glyph glyph-name="Oslash" unicode="&#xd8;" horiz-adv-x="704" 
d="M407 -8h-110l-107 47l-67 68l-44 89l-19 86v147l19 88l44 89l69 67l105 46h110l105 -46l69 -67l44 -89l19 -88v-147l-19 -86l-44 -89l-67 -68zM239 108l74 -34h80l72 34l47 48l34 66l15 67v134l-15 67l-34 67l-48 48l-71 32h-82l-71 -32l-48 -48l-34 -67l-15 -68v-134
l15 -65l34 -67z" />
    <glyph glyph-name="ae" unicode="&#xe6;" horiz-adv-x="1139" 
d="M346 102l41 43l10 31v37l-21 22l-31 16l-49 14h-45l-66 -18l-39 -39l-8 -35v-27l31 -44l23 -14l47 -14h32zM131 400l-57 59l28 26l48 31l64 19h93l72 -18l74 -50l27 -68v-303l39 -56l-67 -48l-48 72l-23 -26l-92 -46h-62l-68 21l-48 28l-56 81v58l14 68l74 74l99 25h64
l67 -22l24 -17v76l-11 30l-42 27l-49 12h-71l-43 -14l-31 -20zM703 223v-10l13 -44l48 -65l61 -30h60l68 17l52 33l44 -66l-65 -43l-92 -23h-83l-100 48l-68 92l-21 71v119l21 73l68 92l100 48h89l101 -48l67 -92l23 -67v-105h-386zM703 305h303v13l-13 38l-48 65l-61 32
h-62l-60 -31l-47 -64l-12 -44v-9z" />
    <glyph glyph-name="oslash" unicode="&#xf8;" horiz-adv-x="558" 
d="M240 73h78l59 29l30 45l13 67v100l-13 65l-31 44l-58 30h-78l-60 -30l-29 -44l-13 -65v-100l13 -67l30 -45zM332 -8h-106l-101 48l-50 74l-20 90v118l20 90l50 74l101 49h106l101 -49l50 -74l20 -90v-118l-20 -90l-50 -74z" />
    <glyph glyph-name="Agrave" unicode="&#xc0;" horiz-adv-x="624" 
d="M279 711h66l259 -711h-88l-76 214h-256l-76 -214h-88zM212 295h200l-100 291z" />
    <glyph glyph-name="Atilde" unicode="&#xc3;" horiz-adv-x="624" 
d="M279 711h66l259 -711h-88l-76 214h-256l-76 -214h-88zM212 295h200l-100 291z" />
    <glyph glyph-name="Otilde" unicode="&#xd5;" horiz-adv-x="704" 
d="M407 -8h-110l-107 47l-67 68l-44 89l-19 86v147l19 88l44 89l69 67l105 46h110l105 -46l69 -67l44 -89l19 -88v-147l-19 -86l-44 -89l-67 -68zM239 108l74 -34h80l72 34l47 48l34 66l15 67v134l-15 67l-34 67l-48 48l-71 32h-82l-71 -32l-48 -48l-34 -67l-15 -68v-134
l15 -65l34 -67z" />
    <glyph glyph-name="OE" unicode="&#x152;" horiz-adv-x="1285" 
d="M407 -8h-110l-107 47l-67 68l-44 89l-19 86v147l19 88l44 89l69 67l105 46h110l105 -46l69 -67l44 -89l19 -88v-147l-19 -86l-44 -89l-67 -68zM239 108l74 -34h80l72 34l47 48l34 66l15 67v134l-15 67l-34 67l-48 48l-71 32h-82l-71 -32l-48 -48l-34 -67l-15 -68v-134
l15 -65l34 -67zM1245 629h-363v-210h251v-82h-251v-255h363v-82h-446v711h446v-82z" />
    <glyph glyph-name="oe" unicode="&#x153;" horiz-adv-x="1132" 
d="M240 73h78l59 29l30 45l13 67v100l-13 65l-31 44l-58 30h-78l-60 -30l-29 -44l-13 -65v-100l13 -67l30 -45zM332 -8h-106l-101 48l-50 74l-20 90v118l20 90l50 74l101 49h106l101 -49l50 -74l20 -90v-118l-20 -90l-50 -74zM696 223v-10l13 -44l48 -65l61 -30h60l68 17
l52 33l44 -66l-65 -43l-92 -23h-83l-100 48l-68 92l-21 71v119l21 73l68 92l100 48h89l101 -48l67 -92l23 -67v-105h-386zM696 305h303v13l-13 38l-48 65l-61 32h-62l-60 -31l-47 -64l-12 -44v-9z" />
    <glyph glyph-name="endash" unicode="&#x2013;" horiz-adv-x="480" 
d="M70 270v78h340v-78h-340z" />
    <glyph glyph-name="emdash" unicode="&#x2014;" horiz-adv-x="480" 
d="M70 270v78h340v-78h-340z" />
    <glyph glyph-name="ydieresis" unicode="&#xff;" horiz-adv-x="552" 
d="M119 527l158 -359l158 359h92l-311 -689h-89l105 232l-207 457h94z" />
    <glyph glyph-name="Ydieresis" unicode="&#x178;" horiz-adv-x="566" 
d="M283 442l175 269h98l-232 -353v-358h-82v358l-232 353h98z" />
    <glyph glyph-name="fi" unicode="&#xfb01;" horiz-adv-x="666" 
d="M120 0v432h-95v82h95v140l55 82l84 26h40l89 -20l-21 -81l-74 19h-27l-38 -13l-25 -37v-116h134v-82h-134v-432h-83zM493 0v527h83v-527h-83zM475 631v123h119v-123h-119z" />
    <glyph glyph-name="Acircumflex" unicode="&#xc2;" horiz-adv-x="624" 
d="M279 711h66l259 -711h-88l-76 214h-256l-76 -214h-88zM212 295h200l-100 291z" />
    <glyph glyph-name="Ecircumflex" unicode="&#xca;" 
d="M541 629h-363v-210h251v-82h-251v-255h363v-82h-446v711h446v-82z" />
    <glyph glyph-name="Aacute" unicode="&#xc1;" horiz-adv-x="624" 
d="M279 711h66l259 -711h-88l-76 214h-256l-76 -214h-88zM212 295h200l-100 291z" />
    <glyph glyph-name="Edieresis" unicode="&#xcb;" 
d="M541 629h-363v-210h251v-82h-251v-255h363v-82h-446v711h446v-82z" />
    <glyph glyph-name="Egrave" unicode="&#xc8;" 
d="M541 629h-363v-210h251v-82h-251v-255h363v-82h-446v711h446v-82z" />
    <glyph glyph-name="Iacute" unicode="&#xcd;" horiz-adv-x="273" 
d="M178 711v-711h-83v711h83z" />
    <glyph glyph-name="Icircumflex" unicode="&#xce;" horiz-adv-x="273" 
d="M178 711v-711h-83v711h83z" />
    <glyph glyph-name="Idieresis" unicode="&#xcf;" horiz-adv-x="273" 
d="M178 711v-711h-83v711h83z" />
    <glyph glyph-name="Igrave" unicode="&#xcc;" horiz-adv-x="273" 
d="M178 711v-711h-83v711h83z" />
    <glyph glyph-name="Oacute" unicode="&#xd3;" horiz-adv-x="704" 
d="M407 -8h-110l-107 47l-67 68l-44 89l-19 86v147l19 88l44 89l69 67l105 46h110l105 -46l69 -67l44 -89l19 -88v-147l-19 -86l-44 -89l-67 -68zM239 108l74 -34h80l72 34l47 48l34 66l15 67v134l-15 67l-34 67l-48 48l-71 32h-82l-71 -32l-48 -48l-34 -67l-15 -68v-134
l15 -65l34 -67z" />
    <glyph glyph-name="Ocircumflex" unicode="&#xd4;" horiz-adv-x="704" 
d="M407 -8h-110l-107 47l-67 68l-44 89l-19 86v147l19 88l44 89l69 67l105 46h110l105 -46l69 -67l44 -89l19 -88v-147l-19 -86l-44 -89l-67 -68zM239 108l74 -34h80l72 34l47 48l34 66l15 67v134l-15 67l-34 67l-48 48l-71 32h-82l-71 -32l-48 -48l-34 -67l-15 -68v-134
l15 -65l34 -67z" />
    <glyph glyph-name="Ograve" unicode="&#xd2;" horiz-adv-x="704" 
d="M407 -8h-110l-107 47l-67 68l-44 89l-19 86v147l19 88l44 89l69 67l105 46h110l105 -46l69 -67l44 -89l19 -88v-147l-19 -86l-44 -89l-67 -68zM239 108l74 -34h80l72 34l47 48l34 66l15 67v134l-15 67l-34 67l-48 48l-71 32h-82l-71 -32l-48 -48l-34 -67l-15 -68v-134
l15 -65l34 -67z" />
    <glyph glyph-name="Uacute" unicode="&#xda;" horiz-adv-x="709" 
d="M399 -8h-89l-128 47l-70 93l-22 71v508h83v-497l13 -45l48 -63l89 -32h63l89 32l48 63l13 45v497h83v-508l-22 -71l-70 -93z" />
    <glyph glyph-name="Ucircumflex" unicode="&#xdb;" horiz-adv-x="709" 
d="M399 -8h-89l-128 47l-70 93l-22 71v508h83v-497l13 -45l48 -63l89 -32h63l89 32l48 63l13 45v497h83v-508l-22 -71l-70 -93z" />
    <glyph glyph-name="Ugrave" unicode="&#xd9;" horiz-adv-x="709" 
d="M399 -8h-89l-128 47l-70 93l-22 71v508h83v-497l13 -45l48 -63l89 -32h63l89 32l48 63l13 45v497h83v-508l-22 -71l-70 -93z" />
    <glyph glyph-name="dotlessi" unicode="&#x131;" horiz-adv-x="263" 
d="M90 0v527h83v-527h-83zM72 631v123h119v-123h-119z" />
    <glyph glyph-name="Amacron" unicode="&#x100;" horiz-adv-x="624" 
d="M279 711h66l259 -711h-88l-76 214h-256l-76 -214h-88zM212 295h200l-100 291z" />
    <glyph glyph-name="Abreve" unicode="&#x102;" horiz-adv-x="624" 
d="M279 711h66l259 -711h-88l-76 214h-256l-76 -214h-88zM212 295h200l-100 291z" />
    <glyph glyph-name="Aogonek" unicode="&#x104;" horiz-adv-x="624" 
d="M279 711h66l259 -711h-88l-76 214h-256l-76 -214h-88zM212 295h200l-100 291z" />
    <glyph glyph-name="AEacute" unicode="&#x1fc;" horiz-adv-x="1205" 
d="M279 711h66l259 -711h-88l-76 214h-256l-76 -214h-88zM212 295h200l-100 291zM1165 629h-363v-210h251v-82h-251v-255h363v-82h-446v711h446v-82z" />
    <glyph glyph-name="Cacute" unicode="&#x106;" horiz-adv-x="640" 
d="M402 -8h-110l-107 47l-67 68l-44 89l-19 86v147l19 88l44 89l69 67l105 46h110l104 -41l45 -35l39 -46l-59 -56l-35 39l-31 25l-75 32h-84l-71 -32l-48 -48l-34 -67l-15 -67v-134l15 -67l34 -66l47 -48l72 -34h84l76 32l31 25l34 39l59 -56l-39 -46l-45 -35z" />
    <glyph glyph-name="Ccircumflex" unicode="&#x108;" horiz-adv-x="640" 
d="M402 -8h-110l-107 47l-67 68l-44 89l-19 86v147l19 88l44 89l69 67l105 46h110l104 -41l45 -35l39 -46l-59 -56l-35 39l-31 25l-75 32h-84l-71 -32l-48 -48l-34 -67l-15 -67v-134l15 -67l34 -66l47 -48l72 -34h84l76 32l31 25l34 39l59 -56l-39 -46l-45 -35z" />
    <glyph glyph-name="Ccaron" unicode="&#x10c;" horiz-adv-x="640" 
d="M402 -8h-110l-107 47l-67 68l-44 89l-19 86v147l19 88l44 89l69 67l105 46h110l104 -41l45 -35l39 -46l-59 -56l-35 39l-31 25l-75 32h-84l-71 -32l-48 -48l-34 -67l-15 -67v-134l15 -67l34 -66l47 -48l72 -34h84l76 32l31 25l34 39l59 -56l-39 -46l-45 -35z" />
    <glyph glyph-name="Cdotaccent" unicode="&#x10a;" horiz-adv-x="640" 
d="M402 -8h-110l-107 47l-67 68l-44 89l-19 86v147l19 88l44 89l69 67l105 46h110l104 -41l45 -35l39 -46l-59 -56l-35 39l-31 25l-75 32h-84l-71 -32l-48 -48l-34 -67l-15 -67v-134l15 -67l34 -66l47 -48l72 -34h84l76 32l31 25l34 39l59 -56l-39 -46l-45 -35z" />
    <glyph glyph-name="Dcaron" unicode="&#x10e;" horiz-adv-x="663" 
d="M178 82h162l82 34l46 47l33 65l19 72v111l-18 72l-34 65l-47 48l-80 33h-163v-547zM95 0v711h261l112 -44l69 -70l44 -88l22 -88v-131l-22 -88l-44 -88l-69 -70l-112 -44h-261z" />
    <glyph glyph-name="Dcroat" unicode="&#x110;" horiz-adv-x="663" 
d="M178 82h162l82 34l46 47l33 65l19 72v111l-18 72l-34 65l-47 48l-80 33h-163v-547zM95 0v711h261l112 -44l69 -70l44 -88l22 -88v-131l-22 -88l-44 -88l-69 -70l-112 -44h-261z" />
    <glyph glyph-name="Ecaron" unicode="&#x11a;" 
d="M541 629h-363v-210h251v-82h-251v-255h363v-82h-446v711h446v-82z" />
    <glyph glyph-name="Emacron" unicode="&#x112;" 
d="M541 629h-363v-210h251v-82h-251v-255h363v-82h-446v711h446v-82z" />
    <glyph glyph-name="Ebreve" unicode="&#x114;" 
d="M541 629h-363v-210h251v-82h-251v-255h363v-82h-446v711h446v-82z" />
    <glyph glyph-name="Edotaccent" unicode="&#x116;" 
d="M541 629h-363v-210h251v-82h-251v-255h363v-82h-446v711h446v-82z" />
    <glyph glyph-name="Eogonek" unicode="&#x118;" 
d="M541 629h-363v-210h251v-82h-251v-255h363v-82h-446v711h446v-82z" />
    <glyph glyph-name="Gcircumflex" unicode="&#x11c;" horiz-adv-x="677" 
d="M536 545l-33 40l-33 25l-77 27h-82l-71 -32l-48 -48l-34 -67l-15 -67v-134l15 -67l34 -66l47 -48l72 -34h84l57 25l47 41l33 53l7 36v49h-174v82h257v-135l-11 -59l-44 -74l-68 -61l-90 -39h-112l-107 47l-67 68l-44 89l-19 86v147l19 88l44 89l69 67l105 46h110l104 -38
l47 -36l39 -47z" />
    <glyph glyph-name="Gbreve" unicode="&#x11e;" horiz-adv-x="677" 
d="M536 545l-33 40l-33 25l-77 27h-82l-71 -32l-48 -48l-34 -67l-15 -67v-134l15 -67l34 -66l47 -48l72 -34h84l57 25l47 41l33 53l7 36v49h-174v82h257v-135l-11 -59l-44 -74l-68 -61l-90 -39h-112l-107 47l-67 68l-44 89l-19 86v147l19 88l44 89l69 67l105 46h110l104 -38
l47 -36l39 -47z" />
    <glyph glyph-name="Gdotaccent" unicode="&#x120;" horiz-adv-x="677" 
d="M536 545l-33 40l-33 25l-77 27h-82l-71 -32l-48 -48l-34 -67l-15 -67v-134l15 -67l34 -66l47 -48l72 -34h84l57 25l47 41l33 53l7 36v49h-174v82h257v-135l-11 -59l-44 -74l-68 -61l-90 -39h-112l-107 47l-67 68l-44 89l-19 86v147l19 88l44 89l69 67l105 46h110l104 -38
l47 -36l39 -47z" />
    <glyph glyph-name="Gcommaaccent" unicode="&#x122;" horiz-adv-x="677" 
d="M536 545l-33 40l-33 25l-77 27h-82l-71 -32l-48 -48l-34 -67l-15 -67v-134l15 -67l34 -66l47 -48l72 -34h84l57 25l47 41l33 53l7 36v49h-174v82h257v-135l-11 -59l-44 -74l-68 -61l-90 -39h-112l-107 47l-67 68l-44 89l-19 86v147l19 88l44 89l69 67l105 46h110l104 -38
l47 -36l39 -47z" />
    <glyph glyph-name="Hcircumflex" unicode="&#x124;" horiz-adv-x="679" 
d="M178 419h323v292h83v-711h-83v337h-323v-337h-83v711h83v-292z" />
    <glyph glyph-name="Hbar" unicode="&#x126;" horiz-adv-x="679" 
d="M178 419h323v292h83v-711h-83v337h-323v-337h-83v711h83v-292z" />
    <glyph glyph-name="Lcommaaccent" unicode="&#x13b;" horiz-adv-x="522" 
d="M178 711v-629h324v-82h-407v711h83z" />
    <glyph glyph-name="Kcommaaccent" unicode="&#x136;" horiz-adv-x="665" 
d="M365 419l285 -419h-103l-240 360l-129 -136v-224h-83v711h83v-369l344 369h118z" />
    <glyph glyph-name="Itilde" unicode="&#x128;" horiz-adv-x="273" 
d="M178 711v-711h-83v711h83z" />
    <glyph glyph-name="Imacron" unicode="&#x12a;" horiz-adv-x="273" 
d="M178 711v-711h-83v711h83z" />
    <glyph glyph-name="Ibreve" unicode="&#x12c;" horiz-adv-x="273" 
d="M178 711v-711h-83v711h83z" />
    <glyph glyph-name="Idotaccent" unicode="&#x130;" horiz-adv-x="273" 
d="M178 711v-711h-83v711h83z" />
    <glyph glyph-name="Iogonek" unicode="&#x12e;" horiz-adv-x="273" 
d="M178 711v-711h-83v711h83z" />
    <glyph glyph-name="IJ" unicode="&#x132;" horiz-adv-x="776" 
d="M178 711v-711h-83v711h83zM454 -8l-68 27l-72 70l-21 90l80 22l15 -68l46 -46l35 -13h38l35 14l46 45l15 62v516h83v-527l-24 -94l-70 -71l-68 -27h-70z" />
    <glyph glyph-name="Jcircumflex" unicode="&#x134;" horiz-adv-x="503" 
d="M181 -8l-68 27l-72 70l-21 90l80 22l15 -68l46 -46l35 -13h38l35 14l46 45l15 62v516h83v-527l-24 -94l-70 -71l-68 -27h-70z" />
    <glyph glyph-name="Lacute" unicode="&#x139;" horiz-adv-x="522" 
d="M178 711v-629h324v-82h-407v711h83z" />
    <glyph glyph-name="Lcaron" unicode="&#x13d;" horiz-adv-x="522" 
d="M178 711v-629h324v-82h-407v711h83z" />
    <glyph glyph-name="Ldot" unicode="&#x13f;" horiz-adv-x="522" 
d="M178 711v-629h324v-82h-407v711h83z" />
    <glyph glyph-name="Nacute" unicode="&#x143;" horiz-adv-x="738" 
d="M95 0v711h71l394 -576v576h83v-711h-89l-376 552v-552h-83z" />
    <glyph glyph-name="Ncaron" unicode="&#x147;" horiz-adv-x="738" 
d="M95 0v711h71l394 -576v576h83v-711h-89l-376 552v-552h-83z" />
    <glyph glyph-name="Ncommaaccent" unicode="&#x145;" horiz-adv-x="738" 
d="M95 0v711h71l394 -576v576h83v-711h-89l-376 552v-552h-83z" />
    <glyph glyph-name="Omacron" unicode="&#x14c;" horiz-adv-x="704" 
d="M407 -8h-110l-107 47l-67 68l-44 89l-19 86v147l19 88l44 89l69 67l105 46h110l105 -46l69 -67l44 -89l19 -88v-147l-19 -86l-44 -89l-67 -68zM239 108l74 -34h80l72 34l47 48l34 66l15 67v134l-15 67l-34 67l-48 48l-71 32h-82l-71 -32l-48 -48l-34 -67l-15 -68v-134
l15 -65l34 -67z" />
    <glyph glyph-name="Obreve" unicode="&#x14e;" horiz-adv-x="704" 
d="M407 -8h-110l-107 47l-67 68l-44 89l-19 86v147l19 88l44 89l69 67l105 46h110l105 -46l69 -67l44 -89l19 -88v-147l-19 -86l-44 -89l-67 -68zM239 108l74 -34h80l72 34l47 48l34 66l15 67v134l-15 67l-34 67l-48 48l-71 32h-82l-71 -32l-48 -48l-34 -67l-15 -68v-134
l15 -65l34 -67z" />
    <glyph glyph-name="Ohungarumlaut" unicode="&#x150;" horiz-adv-x="704" 
d="M407 -8h-110l-107 47l-67 68l-44 89l-19 86v147l19 88l44 89l69 67l105 46h110l105 -46l69 -67l44 -89l19 -88v-147l-19 -86l-44 -89l-67 -68zM239 108l74 -34h80l72 34l47 48l34 66l15 67v134l-15 67l-34 67l-48 48l-71 32h-82l-71 -32l-48 -48l-34 -67l-15 -68v-134
l15 -65l34 -67z" />
    <glyph glyph-name="Oslashacute" unicode="&#x1fe;" horiz-adv-x="704" 
d="M407 -8h-110l-107 47l-67 68l-44 89l-19 86v147l19 88l44 89l69 67l105 46h110l105 -46l69 -67l44 -89l19 -88v-147l-19 -86l-44 -89l-67 -68zM239 108l74 -34h80l72 34l47 48l34 66l15 67v134l-15 67l-34 67l-48 48l-71 32h-82l-71 -32l-48 -48l-34 -67l-15 -68v-134
l15 -65l34 -67z" />
    <glyph glyph-name="Racute" unicode="&#x154;" horiz-adv-x="635" 
d="M95 711h296l93 -24l74 -74l29 -101l-27 -98l-49 -72l-59 -31l138 -311h-92l-129 296h-191v-296h-83v711zM178 629v-251h217l60 29l29 43l17 59l-17 60l-43 43l-59 17h-204z" />
    <glyph glyph-name="Rcaron" unicode="&#x158;" horiz-adv-x="635" 
d="M95 711h296l93 -24l74 -74l29 -101l-27 -98l-49 -72l-59 -31l138 -311h-92l-129 296h-191v-296h-83v711zM178 629v-251h217l60 29l29 43l17 59l-17 60l-43 43l-59 17h-204z" />
    <glyph glyph-name="Rcommaaccent" unicode="&#x156;" horiz-adv-x="635" 
d="M95 711h296l93 -24l74 -74l29 -101l-27 -98l-49 -72l-59 -31l138 -311h-92l-129 296h-191v-296h-83v711zM178 629v-251h217l60 29l29 43l17 59l-17 60l-43 43l-59 17h-204z" />
    <glyph glyph-name="Sacute" unicode="&#x15a;" horiz-adv-x="602" 
d="M136 25l-60 42l-23 28l60 58l19 -24l41 -28l90 -27h86l75 29l24 28l14 29v60l-23 46l-47 27l-204 56l-75 53l-33 53l-14 82l27 85l64 67l92 30h105l116 -30l65 -40l-45 -70l-57 34l-90 24h-79l-60 -19l-37 -37l-15 -52l9 -44l13 -22l51 -37l211 -58l77 -53l32 -77v-97
l-25 -54l-48 -55l-109 -40h-118z" />
    <glyph glyph-name="Scircumflex" unicode="&#x15c;" horiz-adv-x="602" 
d="M136 25l-60 42l-23 28l60 58l19 -24l41 -28l90 -27h86l75 29l24 28l14 29v60l-23 46l-47 27l-204 56l-75 53l-33 53l-14 82l27 85l64 67l92 30h105l116 -30l65 -40l-45 -70l-57 34l-90 24h-79l-60 -19l-37 -37l-15 -52l9 -44l13 -22l51 -37l211 -58l77 -53l32 -77v-97
l-25 -54l-48 -55l-109 -40h-118z" />
    <glyph glyph-name="Scedilla" unicode="&#x15e;" horiz-adv-x="602" 
d="M136 25l-60 42l-23 28l60 58l19 -24l41 -28l90 -27h86l75 29l24 28l14 29v60l-23 46l-47 27l-204 56l-75 53l-33 53l-14 82l27 85l64 67l92 30h105l116 -30l65 -40l-45 -70l-57 34l-90 24h-79l-60 -19l-37 -37l-15 -52l9 -44l13 -22l51 -37l211 -58l77 -53l32 -77v-97
l-25 -54l-48 -55l-109 -40h-118z" />
    <glyph glyph-name="Scommaaccent" unicode="&#x218;" horiz-adv-x="602" 
d="M136 25l-60 42l-23 28l60 58l19 -24l41 -28l90 -27h86l75 29l24 28l14 29v60l-23 46l-47 27l-204 56l-75 53l-33 53l-14 82l27 85l64 67l92 30h105l116 -30l65 -40l-45 -70l-57 34l-90 24h-79l-60 -19l-37 -37l-15 -52l9 -44l13 -22l51 -37l211 -58l77 -53l32 -77v-97
l-25 -54l-48 -55l-109 -40h-118z" />
    <glyph glyph-name="Tcaron" unicode="&#x164;" horiz-adv-x="515" 
d="M297 629v-629h-83v629h-189v82h465v-82h-193z" />
    <glyph glyph-name="Tcommaaccent" unicode="&#x162;" horiz-adv-x="515" 
d="M297 629v-629h-83v629h-189v82h465v-82h-193z" />
    <glyph glyph-name="Tbar" unicode="&#x166;" horiz-adv-x="515" 
d="M297 629v-629h-83v629h-189v82h465v-82h-193z" />
    <glyph glyph-name="uni021A" unicode="&#x21a;" horiz-adv-x="515" 
d="M297 629v-629h-83v629h-189v82h465v-82h-193z" />
    <glyph glyph-name="Utilde" unicode="&#x168;" horiz-adv-x="709" 
d="M399 -8h-89l-128 47l-70 93l-22 71v508h83v-497l13 -45l48 -63l89 -32h63l89 32l48 63l13 45v497h83v-508l-22 -71l-70 -93z" />
    <glyph glyph-name="Umacron" unicode="&#x16a;" horiz-adv-x="709" 
d="M399 -8h-89l-128 47l-70 93l-22 71v508h83v-497l13 -45l48 -63l89 -32h63l89 32l48 63l13 45v497h83v-508l-22 -71l-70 -93z" />
    <glyph glyph-name="Ubreve" unicode="&#x16c;" horiz-adv-x="709" 
d="M399 -8h-89l-128 47l-70 93l-22 71v508h83v-497l13 -45l48 -63l89 -32h63l89 32l48 63l13 45v497h83v-508l-22 -71l-70 -93z" />
    <glyph glyph-name="Uring" unicode="&#x16e;" horiz-adv-x="709" 
d="M399 -8h-89l-128 47l-70 93l-22 71v508h83v-497l13 -45l48 -63l89 -32h63l89 32l48 63l13 45v497h83v-508l-22 -71l-70 -93z" />
    <glyph glyph-name="Uhungarumlaut" unicode="&#x170;" horiz-adv-x="709" 
d="M399 -8h-89l-128 47l-70 93l-22 71v508h83v-497l13 -45l48 -63l89 -32h63l89 32l48 63l13 45v497h83v-508l-22 -71l-70 -93z" />
    <glyph glyph-name="Uogonek" unicode="&#x172;" horiz-adv-x="709" 
d="M399 -8h-89l-128 47l-70 93l-22 71v508h83v-497l13 -45l48 -63l89 -32h63l89 32l48 63l13 45v497h83v-508l-22 -71l-70 -93z" />
    <glyph glyph-name="Wgrave" unicode="&#x1e80;" horiz-adv-x="870" 
d="M466 682l164 -534l140 563h85l-182 -711h-79l-159 514l-159 -514h-79l-182 711h85l140 -563l164 534h62z" />
    <glyph glyph-name="Wacute" unicode="&#x1e82;" horiz-adv-x="870" 
d="M466 682l164 -534l140 563h85l-182 -711h-79l-159 514l-159 -514h-79l-182 711h85l140 -563l164 534h62z" />
    <glyph glyph-name="Wcircumflex" unicode="&#x174;" horiz-adv-x="870" 
d="M466 682l164 -534l140 563h85l-182 -711h-79l-159 514l-159 -514h-79l-182 711h85l140 -563l164 534h62z" />
    <glyph glyph-name="Wdieresis" unicode="&#x1e84;" horiz-adv-x="870" 
d="M466 682l164 -534l140 563h85l-182 -711h-79l-159 514l-159 -514h-79l-182 711h85l140 -563l164 534h62z" />
    <glyph glyph-name="Ygrave" unicode="&#x1ef2;" horiz-adv-x="566" 
d="M283 442l175 269h98l-232 -353v-358h-82v358l-232 353h98z" />
    <glyph glyph-name="Ycircumflex" unicode="&#x176;" horiz-adv-x="566" 
d="M283 442l175 269h98l-232 -353v-358h-82v358l-232 353h98z" />
    <glyph glyph-name="Zacute" unicode="&#x179;" horiz-adv-x="558" 
d="M50 711h469v-64l-379 -565h388v-82h-498v64l380 565h-360v82z" />
    <glyph glyph-name="Zdotaccent" unicode="&#x17b;" horiz-adv-x="558" 
d="M50 711h469v-64l-379 -565h388v-82h-498v64l380 565h-360v82z" />
    <glyph glyph-name="Eng" unicode="&#x14a;" horiz-adv-x="738" 
d="M95 0v711h71l394 -576v576h83v-711h-89l-376 552v-552h-83z" />
    <glyph glyph-name="amacron" unicode="&#x101;" horiz-adv-x="565" 
d="M346 102l41 43l10 31v37l-21 22l-31 16l-49 14h-45l-66 -18l-39 -39l-8 -35v-27l31 -44l23 -14l47 -14h32zM131 400l-57 59l28 26l48 31l64 19h93l72 -18l74 -50l27 -68v-303l39 -56l-67 -48l-48 72l-23 -26l-92 -46h-62l-68 21l-48 28l-56 81v58l14 68l74 74l99 25h64
l67 -22l24 -17v76l-11 30l-42 27l-49 12h-71l-43 -14l-31 -20z" />
    <glyph glyph-name="abreve" unicode="&#x103;" horiz-adv-x="565" 
d="M346 102l41 43l10 31v37l-21 22l-31 16l-49 14h-45l-66 -18l-39 -39l-8 -35v-27l31 -44l23 -14l47 -14h32zM131 400l-57 59l28 26l48 31l64 19h93l72 -18l74 -50l27 -68v-303l39 -56l-67 -48l-48 72l-23 -26l-92 -46h-62l-68 21l-48 28l-56 81v58l14 68l74 74l99 25h64
l67 -22l24 -17v76l-11 30l-42 27l-49 12h-71l-43 -14l-31 -20z" />
    <glyph glyph-name="aogonek" unicode="&#x105;" horiz-adv-x="565" 
d="M346 102l41 43l10 31v37l-21 22l-31 16l-49 14h-45l-66 -18l-39 -39l-8 -35v-27l31 -44l23 -14l47 -14h32zM131 400l-57 59l28 26l48 31l64 19h93l72 -18l74 -50l27 -68v-303l39 -56l-67 -48l-48 72l-23 -26l-92 -46h-62l-68 21l-48 28l-56 81v58l14 68l74 74l99 25h64
l67 -22l24 -17v76l-11 30l-42 27l-49 12h-71l-43 -14l-31 -20z" />
    <glyph glyph-name="aeacute" unicode="&#x1fd;" horiz-adv-x="1139" 
d="M346 102l41 43l10 31v37l-21 22l-31 16l-49 14h-45l-66 -18l-39 -39l-8 -35v-27l31 -44l23 -14l47 -14h32zM131 400l-57 59l28 26l48 31l64 19h93l72 -18l74 -50l27 -68v-303l39 -56l-67 -48l-48 72l-23 -26l-92 -46h-62l-68 21l-48 28l-56 81v58l14 68l74 74l99 25h64
l67 -22l24 -17v76l-11 30l-42 27l-49 12h-71l-43 -14l-31 -20zM703 223v-10l13 -44l48 -65l61 -30h60l68 17l52 33l44 -66l-65 -43l-92 -23h-83l-100 48l-68 92l-21 71v119l21 73l68 92l100 48h89l101 -48l67 -92l23 -67v-105h-386zM703 305h303v13l-13 38l-48 65l-61 32
h-62l-60 -31l-47 -64l-12 -44v-9z" />
    <glyph glyph-name="cacute" unicode="&#x107;" horiz-adv-x="513" 
d="M414 389l-50 50l-45 14h-62l-60 -31l-47 -64l-12 -47v-96l13 -46l48 -65l61 -30h59l43 15l52 49l58 -57l-65 -64l-78 -25h-85l-100 48l-68 92l-21 71v119l21 73l68 92l100 48h85l78 -25l66 -66z" />
    <glyph glyph-name="ccircumflex" unicode="&#x109;" horiz-adv-x="513" 
d="M414 389l-50 50l-45 14h-62l-60 -31l-47 -64l-12 -47v-96l13 -46l48 -65l61 -30h59l43 15l52 49l58 -57l-65 -64l-78 -25h-85l-100 48l-68 92l-21 71v119l21 73l68 92l100 48h85l78 -25l66 -66z" />
    <glyph glyph-name="ccaron" unicode="&#x10d;" horiz-adv-x="513" 
d="M414 389l-50 50l-45 14h-62l-60 -31l-47 -64l-12 -47v-96l13 -46l48 -65l61 -30h59l43 15l52 49l58 -57l-65 -64l-78 -25h-85l-100 48l-68 92l-21 71v119l21 73l68 92l100 48h85l78 -25l66 -66z" />
    <glyph glyph-name="cdotaccent" unicode="&#x10b;" horiz-adv-x="513" 
d="M414 389l-50 50l-45 14h-62l-60 -31l-47 -64l-12 -47v-96l13 -46l48 -65l61 -30h59l43 15l52 49l58 -57l-65 -64l-78 -25h-85l-100 48l-68 92l-21 71v119l21 73l68 92l100 48h85l78 -25l66 -66z" />
    <glyph glyph-name="dcaron" unicode="&#x10f;" horiz-adv-x="594" 
d="M422 53l-22 -23l-62 -38h-90l-104 48l-68 92l-21 71v119l21 73l68 92l100 48h89l60 -22l28 -18v259h83v-754h-82v53zM421 390l-21 26l-38 25l-41 13h-64l-59 -32l-48 -64l-12 -47v-97l12 -45l48 -65l63 -30h66l65 46l29 43v227z" />
    <glyph glyph-name="dcroat" unicode="&#x111;" horiz-adv-x="594" 
d="M422 53l-22 -23l-62 -38h-90l-104 48l-68 92l-21 71v119l21 73l68 92l100 48h89l60 -22l28 -18v259h83v-754h-82v53zM421 390l-21 26l-38 25l-41 13h-64l-59 -32l-48 -64l-12 -47v-97l12 -45l48 -65l63 -30h66l65 46l29 43v227z" />
    <glyph glyph-name="ecaron" unicode="&#x11b;" horiz-adv-x="574" 
d="M138 223v-10l13 -44l48 -65l61 -30h60l68 17l52 33l44 -66l-65 -43l-92 -23h-83l-100 48l-68 92l-21 71v119l21 73l68 92l100 48h89l101 -48l67 -92l23 -67v-105h-386zM138 305h303v13l-13 38l-48 65l-61 32h-62l-60 -31l-47 -64l-12 -44v-9z" />
    <glyph glyph-name="emacron" unicode="&#x113;" horiz-adv-x="574" 
d="M138 223v-10l13 -44l48 -65l61 -30h60l68 17l52 33l44 -66l-65 -43l-92 -23h-83l-100 48l-68 92l-21 71v119l21 73l68 92l100 48h89l101 -48l67 -92l23 -67v-105h-386zM138 305h303v13l-13 38l-48 65l-61 32h-62l-60 -31l-47 -64l-12 -44v-9z" />
    <glyph glyph-name="ebreve" unicode="&#x115;" horiz-adv-x="574" 
d="M138 223v-10l13 -44l48 -65l61 -30h60l68 17l52 33l44 -66l-65 -43l-92 -23h-83l-100 48l-68 92l-21 71v119l21 73l68 92l100 48h89l101 -48l67 -92l23 -67v-105h-386zM138 305h303v13l-13 38l-48 65l-61 32h-62l-60 -31l-47 -64l-12 -44v-9z" />
    <glyph glyph-name="edotaccent" unicode="&#x117;" horiz-adv-x="574" 
d="M138 223v-10l13 -44l48 -65l61 -30h60l68 17l52 33l44 -66l-65 -43l-92 -23h-83l-100 48l-68 92l-21 71v119l21 73l68 92l100 48h89l101 -48l67 -92l23 -67v-105h-386zM138 305h303v13l-13 38l-48 65l-61 32h-62l-60 -31l-47 -64l-12 -44v-9z" />
    <glyph glyph-name="eogonek" unicode="&#x119;" horiz-adv-x="574" 
d="M138 223v-10l13 -44l48 -65l61 -30h60l68 17l52 33l44 -66l-65 -43l-92 -23h-83l-100 48l-68 92l-21 71v119l21 73l68 92l100 48h89l101 -48l67 -92l23 -67v-105h-386zM138 305h303v13l-13 38l-48 65l-61 32h-62l-60 -31l-47 -64l-12 -44v-9z" />
    <glyph glyph-name="gcircumflex" unicode="&#x11d;" horiz-adv-x="594" 
d="M421 390l-21 26l-38 25l-41 13h-64l-59 -32l-48 -64l-12 -47v-73l12 -43l46 -63l65 -26h66l65 46l29 47v191zM329 -168h-88l-71 19l-49 32l-28 27l58 59l25 -25l25 -17l48 -13h71l46 17l43 29l12 30v92l-21 -20l-62 -38h-90l-102 40l-70 92l-21 71v95l21 73l68 92l100 48
h89l60 -22l28 -18v32h83v-546l-25 -73l-76 -51z" />
    <glyph glyph-name="gbreve" unicode="&#x11f;" horiz-adv-x="594" 
d="M421 390l-21 26l-38 25l-41 13h-64l-59 -32l-48 -64l-12 -47v-73l12 -43l46 -63l65 -26h66l65 46l29 47v191zM329 -168h-88l-71 19l-49 32l-28 27l58 59l25 -25l25 -17l48 -13h71l46 17l43 29l12 30v92l-21 -20l-62 -38h-90l-102 40l-70 92l-21 71v95l21 73l68 92l100 48
h89l60 -22l28 -18v32h83v-546l-25 -73l-76 -51z" />
    <glyph glyph-name="gdotaccent" unicode="&#x121;" horiz-adv-x="594" 
d="M421 390l-21 26l-38 25l-41 13h-64l-59 -32l-48 -64l-12 -47v-73l12 -43l46 -63l65 -26h66l65 46l29 47v191zM329 -168h-88l-71 19l-49 32l-28 27l58 59l25 -25l25 -17l48 -13h71l46 17l43 29l12 30v92l-21 -20l-62 -38h-90l-102 40l-70 92l-21 71v95l21 73l68 92l100 48
h89l60 -22l28 -18v32h83v-546l-25 -73l-76 -51z" />
    <glyph glyph-name="gcommaaccent" unicode="&#x123;" horiz-adv-x="594" 
d="M421 390l-21 26l-38 25l-41 13h-64l-59 -32l-48 -64l-12 -47v-73l12 -43l46 -63l65 -26h66l65 46l29 47v191zM329 -168h-88l-71 19l-49 32l-28 27l58 59l25 -25l25 -17l48 -13h71l46 17l43 29l12 30v92l-21 -20l-62 -38h-90l-102 40l-70 92l-21 71v95l21 73l68 92l100 48
h89l60 -22l28 -18v32h83v-546l-25 -73l-76 -51z" />
    <glyph glyph-name="hcircumflex" unicode="&#x125;" 
d="M90 0v754h83v-277l24 20l67 38h92l84 -24l61 -82v-429h-83v397l-25 39l-54 17h-64l-70 -46l-32 -47v-360h-83z" />
    <glyph glyph-name="hbar" unicode="&#x127;" 
d="M90 0v754h83v-277l24 20l67 38h92l84 -24l61 -82v-429h-83v397l-25 39l-54 17h-64l-70 -46l-32 -47v-360h-83z" />
    <glyph glyph-name="itilde" unicode="&#x129;" horiz-adv-x="263" 
d="M90 0v527h83v-527h-83zM72 631v123h119v-123h-119z" />
    <glyph glyph-name="imacron" unicode="&#x12b;" horiz-adv-x="263" 
d="M90 0v527h83v-527h-83zM72 631v123h119v-123h-119z" />
    <glyph glyph-name="ibreve" unicode="&#x12d;" horiz-adv-x="263" 
d="M90 0v527h83v-527h-83zM72 631v123h119v-123h-119z" />
    <glyph glyph-name="iogonek" unicode="&#x12f;" horiz-adv-x="263" 
d="M90 0v527h83v-527h-83zM72 631v123h119v-123h-119z" />
    <glyph glyph-name="ij" unicode="&#x133;" horiz-adv-x="536" 
d="M90 0v527h83v-527h-83zM72 631v123h119v-123h-119zM446 -52l-51 -81l-84 -29h-44l-54 14l21 79l39 -10h27l39 13l24 39v554h83v-579zM345 631v123h119v-123h-119z" />
    <glyph glyph-name="jcircumflex" unicode="&#x135;" horiz-adv-x="273" 
d="M183 -52l-51 -81l-84 -29h-44l-54 14l21 79l39 -10h27l39 13l24 39v554h83v-579zM82 631v123h119v-123h-119z" />
    <glyph glyph-name="kcommaaccent" unicode="&#x137;" horiz-adv-x="552" 
d="M173 304l223 223h116l-216 -211l226 -316h-101l-182 259l-66 -64v-195h-83v754h83v-450z" />
    <glyph glyph-name="lacute" unicode="&#x13a;" horiz-adv-x="263" 
d="M173 0h-83v754h83v-754z" />
    <glyph glyph-name="lcaron" unicode="&#x13e;" horiz-adv-x="263" 
d="M173 0h-83v754h83v-754z" />
    <glyph glyph-name="lcommaaccent" unicode="&#x13c;" horiz-adv-x="263" 
d="M173 0h-83v754h83v-754z" />
    <glyph glyph-name="ldot" unicode="&#x140;" horiz-adv-x="263" 
d="M173 0h-83v754h83v-754z" />
    <glyph glyph-name="nacute" unicode="&#x144;" horiz-adv-x="586" 
d="M173 527v-52l25 22l66 38h92l89 -24l61 -82v-429h-83v397l-25 39l-59 17h-64l-72 -46l-30 -43v-364h-83v527h83z" />
    <glyph glyph-name="ncaron" unicode="&#x148;" horiz-adv-x="586" 
d="M173 527v-52l25 22l66 38h92l89 -24l61 -82v-429h-83v397l-25 39l-59 17h-64l-72 -46l-30 -43v-364h-83v527h83z" />
    <glyph glyph-name="ncommaaccent" unicode="&#x146;" horiz-adv-x="586" 
d="M173 527v-52l25 22l66 38h92l89 -24l61 -82v-429h-83v397l-25 39l-59 17h-64l-72 -46l-30 -43v-364h-83v527h83z" />
    <glyph glyph-name="napostrophe" unicode="&#x149;" horiz-adv-x="586" 
d="M173 527v-52l25 22l66 38h92l89 -24l61 -82v-429h-83v397l-25 39l-59 17h-64l-72 -46l-30 -43v-364h-83v527h83z" />
    <glyph glyph-name="omacron" unicode="&#x14d;" horiz-adv-x="558" 
d="M240 73h78l59 29l30 45l13 67v100l-13 65l-31 44l-58 30h-78l-60 -30l-29 -44l-13 -65v-100l13 -67l30 -45zM332 -8h-106l-101 48l-50 74l-20 90v118l20 90l50 74l101 49h106l101 -49l50 -74l20 -90v-118l-20 -90l-50 -74z" />
    <glyph glyph-name="obreve" unicode="&#x14f;" horiz-adv-x="558" 
d="M240 73h78l59 29l30 45l13 67v100l-13 65l-31 44l-58 30h-78l-60 -30l-29 -44l-13 -65v-100l13 -67l30 -45zM332 -8h-106l-101 48l-50 74l-20 90v118l20 90l50 74l101 49h106l101 -49l50 -74l20 -90v-118l-20 -90l-50 -74z" />
    <glyph glyph-name="ohungarumlaut" unicode="&#x151;" horiz-adv-x="558" 
d="M240 73h78l59 29l30 45l13 67v100l-13 65l-31 44l-58 30h-78l-60 -30l-29 -44l-13 -65v-100l13 -67l30 -45zM332 -8h-106l-101 48l-50 74l-20 90v118l20 90l50 74l101 49h106l101 -49l50 -74l20 -90v-118l-20 -90l-50 -74z" />
    <glyph glyph-name="oslashacute" unicode="&#x1ff;" horiz-adv-x="558" 
d="M240 73h78l59 29l30 45l13 67v100l-13 65l-31 44l-58 30h-78l-60 -30l-29 -44l-13 -65v-100l13 -67l30 -45zM332 -8h-106l-101 48l-50 74l-20 90v118l20 90l50 74l101 49h106l101 -49l50 -74l20 -90v-118l-20 -90l-50 -74z" />
    <glyph glyph-name="racute" unicode="&#x155;" horiz-adv-x="404" 
d="M369 442l-40 11h-43l-55 -26l-41 -46l-22 -48v-333h-83v527h83v-61l38 37l68 32h65l50 -14z" />
    <glyph glyph-name="rcaron" unicode="&#x159;" horiz-adv-x="404" 
d="M369 442l-40 11h-43l-55 -26l-41 -46l-22 -48v-333h-83v527h83v-61l38 37l68 32h65l50 -14z" />
    <glyph glyph-name="rcommaaccent" unicode="&#x157;" horiz-adv-x="404" 
d="M369 442l-40 11h-43l-55 -26l-41 -46l-22 -48v-333h-83v527h83v-61l38 37l68 32h65l50 -14z" />
    <glyph glyph-name="sacute" unicode="&#x15b;" horiz-adv-x="498" 
d="M151 362l20 -27l28 -14l153 -30l57 -38l39 -64v-85l-38 -58l-48 -34l-68 -20h-89l-85 22l-47 37l-23 26l58 56l19 -23l27 -21l62 -16h67l42 12l25 18l16 25v38l-17 29l-30 21l-144 29l-64 34l-42 58v89l33 57l45 35l62 17h85l82 -22l60 -41l-45 -67l-48 33l-56 17h-67
l-38 -11l-17 -14l-14 -24v-44z" />
    <glyph glyph-name="scircumflex" unicode="&#x15d;" horiz-adv-x="498" 
d="M151 362l20 -27l28 -14l153 -30l57 -38l39 -64v-85l-38 -58l-48 -34l-68 -20h-89l-85 22l-47 37l-23 26l58 56l19 -23l27 -21l62 -16h67l42 12l25 18l16 25v38l-17 29l-30 21l-144 29l-64 34l-42 58v89l33 57l45 35l62 17h85l82 -22l60 -41l-45 -67l-48 33l-56 17h-67
l-38 -11l-17 -14l-14 -24v-44z" />
    <glyph glyph-name="scedilla" unicode="&#x15f;" horiz-adv-x="498" 
d="M151 362l20 -27l28 -14l153 -30l57 -38l39 -64v-85l-38 -58l-48 -34l-68 -20h-89l-85 22l-47 37l-23 26l58 56l19 -23l27 -21l62 -16h67l42 12l25 18l16 25v38l-17 29l-30 21l-144 29l-64 34l-42 58v89l33 57l45 35l62 17h85l82 -22l60 -41l-45 -67l-48 33l-56 17h-67
l-38 -11l-17 -14l-14 -24v-44z" />
    <glyph glyph-name="scommaaccent" unicode="&#x219;" horiz-adv-x="498" 
d="M151 362l20 -27l28 -14l153 -30l57 -38l39 -64v-85l-38 -58l-48 -34l-68 -20h-89l-85 22l-47 37l-23 26l58 56l19 -23l27 -21l62 -16h67l42 12l25 18l16 25v38l-17 29l-30 21l-144 29l-64 34l-42 58v89l33 57l45 35l62 17h85l82 -22l60 -41l-45 -67l-48 33l-56 17h-67
l-38 -11l-17 -14l-14 -24v-44z" />
    <glyph glyph-name="tcaron" unicode="&#x165;" horiz-adv-x="414" 
d="M203 698v-184h138v-82h-138v-308l25 -36l36 -14h28l71 18l21 -79l-93 -21h-46l-70 26l-55 79v335h-95v82h95v184h83z" />
    <glyph glyph-name="tcommaaccent" unicode="&#x163;" horiz-adv-x="414" 
d="M203 698v-184h138v-82h-138v-308l25 -36l36 -14h28l71 18l21 -79l-93 -21h-46l-70 26l-55 79v335h-95v82h95v184h83z" />
    <glyph glyph-name="tbar" unicode="&#x167;" horiz-adv-x="414" 
d="M203 698v-184h138v-82h-138v-308l25 -36l36 -14h28l71 18l21 -79l-93 -21h-46l-70 26l-55 79v335h-95v82h95v184h83z" />
    <glyph glyph-name="uni021B" unicode="&#x21b;" 
d="M249 73h57l71 47l31 43v364h83v-527h-82v53l-26 -23l-66 -38h-81l-91 24l-65 84v427h83v-397l29 -42z" />
    <glyph glyph-name="utilde" unicode="&#x169;" 
d="M249 73h57l71 47l31 43v364h83v-527h-82v53l-26 -23l-66 -38h-81l-91 24l-65 84v427h83v-397l29 -42z" />
    <glyph glyph-name="umacron" unicode="&#x16b;" 
d="M249 73h57l71 47l31 43v364h83v-527h-82v53l-26 -23l-66 -38h-81l-91 24l-65 84v427h83v-397l29 -42z" />
    <glyph glyph-name="ubreve" unicode="&#x16d;" 
d="M249 73h57l71 47l31 43v364h83v-527h-82v53l-26 -23l-66 -38h-81l-91 24l-65 84v427h83v-397l29 -42z" />
    <glyph glyph-name="uring" unicode="&#x16f;" 
d="M249 73h57l71 47l31 43v364h83v-527h-82v53l-26 -23l-66 -38h-81l-91 24l-65 84v427h83v-397l29 -42z" />
    <glyph glyph-name="uhungarumlaut" unicode="&#x171;" 
d="M249 73h57l71 47l31 43v364h83v-527h-82v53l-26 -23l-66 -38h-81l-91 24l-65 84v427h83v-397l29 -42z" />
    <glyph glyph-name="uogonek" unicode="&#x173;" 
d="M249 73h57l71 47l31 43v364h83v-527h-82v53l-26 -23l-66 -38h-81l-91 24l-65 84v427h83v-397l29 -42z" />
    <glyph glyph-name="wgrave" unicode="&#x1e81;" horiz-adv-x="768" 
d="M220 138l130 369h68l130 -369l108 389h87l-153 -527h-78l-128 368l-128 -368h-78l-153 527h87z" />
    <glyph glyph-name="wacute" unicode="&#x1e83;" horiz-adv-x="768" 
d="M220 138l130 369h68l130 -369l108 389h87l-153 -527h-78l-128 368l-128 -368h-78l-153 527h87z" />
    <glyph glyph-name="wcircumflex" unicode="&#x175;" horiz-adv-x="768" 
d="M220 138l130 369h68l130 -369l108 389h87l-153 -527h-78l-128 368l-128 -368h-78l-153 527h87z" />
    <glyph glyph-name="wdieresis" unicode="&#x1e85;" horiz-adv-x="768" 
d="M220 138l130 369h68l130 -369l108 389h87l-153 -527h-78l-128 368l-128 -368h-78l-153 527h87z" />
    <glyph glyph-name="ygrave" unicode="&#x1ef3;" horiz-adv-x="552" 
d="M119 527l158 -359l158 359h92l-311 -689h-89l105 232l-207 457h94z" />
    <glyph glyph-name="ycircumflex" unicode="&#x177;" horiz-adv-x="552" 
d="M119 527l158 -359l158 359h92l-311 -689h-89l105 232l-207 457h94z" />
    <glyph glyph-name="zacute" unicode="&#x17a;" horiz-adv-x="503" 
d="M453 0h-403v66l287 380h-272v81h383v-66l-285 -379h290v-82z" />
    <glyph glyph-name="zdotaccent" unicode="&#x17c;" horiz-adv-x="503" 
d="M453 0h-403v66l287 380h-272v81h383v-66l-285 -379h290v-82z" />
    <glyph glyph-name="eng" unicode="&#x14b;" horiz-adv-x="586" 
d="M173 527v-52l25 22l66 38h92l89 -24l61 -82v-429h-83v397l-25 39l-59 17h-64l-72 -46l-30 -43v-364h-83v527h83z" />
    <glyph glyph-name="kgreenlandic" unicode="&#x138;" horiz-adv-x="552" 
d="M173 304l223 223h116l-216 -211l226 -316h-101l-182 259l-66 -64v-195h-83v754h83v-450z" />
    <glyph glyph-name="ff" unicode="&#xfb00;" horiz-adv-x="806" 
d="M120 0v432h-95v82h95v140l55 82l84 26h40l89 -20l-21 -81l-74 19h-27l-38 -13l-25 -37v-116h134v-82h-134v-432h-83zM523 0v432h-95v82h95v140l55 82l84 26h40l89 -20l-21 -81l-74 19h-27l-38 -13l-25 -37v-116h134v-82h-134v-432h-83z" />
    <glyph glyph-name="Aringacute" unicode="&#x1fa;" horiz-adv-x="624" 
d="M279 711h66l259 -711h-88l-76 214h-256l-76 -214h-88zM212 295h200l-100 291z" />
    <glyph glyph-name="aringacute" unicode="&#x1fb;" horiz-adv-x="565" 
d="M346 102l41 43l10 31v37l-21 22l-31 16l-49 14h-45l-66 -18l-39 -39l-8 -35v-27l31 -44l23 -14l47 -14h32zM131 400l-57 59l28 26l48 31l64 19h93l72 -18l74 -50l27 -68v-303l39 -56l-67 -48l-48 72l-23 -26l-92 -46h-62l-68 21l-48 28l-56 81v58l14 68l74 74l99 25h64
l67 -22l24 -17v76l-11 30l-42 27l-49 12h-71l-43 -14l-31 -20z" />
    <glyph glyph-name="uni0401" unicode="&#x401;" horiz-adv-x="0" 
 />
    <glyph glyph-name="uni0403" unicode="&#x403;" horiz-adv-x="0" 
 />
    <glyph glyph-name="uni0407" unicode="&#x407;" horiz-adv-x="0" 
 />
    <glyph glyph-name="uni0409" unicode="&#x409;" horiz-adv-x="0" 
 />
    <glyph glyph-name="uni040A" unicode="&#x40a;" horiz-adv-x="0" 
 />
    <glyph glyph-name="uni040C" unicode="&#x40c;" horiz-adv-x="0" 
 />
    <glyph glyph-name="uni040E" unicode="&#x40e;" horiz-adv-x="0" 
 />
    <glyph glyph-name="uni0419" unicode="&#x419;" horiz-adv-x="0" 
 />
    <glyph glyph-name="uni0439" unicode="&#x439;" horiz-adv-x="0" 
 />
    <glyph glyph-name="uni0451" unicode="&#x451;" horiz-adv-x="0" 
 />
    <glyph glyph-name="uni0453" unicode="&#x453;" horiz-adv-x="0" 
 />
    <glyph glyph-name="uni0457" unicode="&#x457;" horiz-adv-x="0" 
 />
    <glyph glyph-name="uni0459" unicode="&#x459;" horiz-adv-x="0" 
 />
    <glyph glyph-name="uni045A" unicode="&#x45a;" horiz-adv-x="0" 
 />
    <glyph glyph-name="uni045C" unicode="&#x45c;" horiz-adv-x="0" 
 />
    <glyph glyph-name="uni045E" unicode="&#x45e;" horiz-adv-x="0" 
 />
    <glyph glyph-name="uni0490" unicode="&#x490;" horiz-adv-x="0" 
 />
    <glyph glyph-name="uni0491" unicode="&#x491;" horiz-adv-x="0" 
 />
  </font>
</defs>
</svg>
