<?xml version="1.0" encoding="UTF-8" standalone="no"?>
<svg width="1367px" height="159px" viewBox="0 0 1367 159" version="1.1" xmlns="http://www.w3.org/2000/svg" xmlns:xlink="http://www.w3.org/1999/xlink" xmlns:sketch="http://www.bohemiancoding.com/sketch/ns">
    <!-- Generator: Sketch 3.2.2 (9983) - http://www.bohemiancoding.com/sketch -->
    <title>COLLECTIONS</title>
    <desc>Created with Sketch.</desc>
    <defs></defs>
    <g id="Page-1" stroke="none" stroke-width="1" fill="none" fill-rule="evenodd" sketch:type="MSPage">
        <g id="Artboard-14" sketch:type="MSArtboardGroup" transform="translate(-48.000000, -126.000000)" fill="#A3AFBB" opacity="0.100000001">
            <path d="M99.6535422,284.065764 L123.671675,284.065764 L146.60791,274.977822 L156.344991,267.404537 L166.731211,255.287281 L149.853604,239.275192 L140.982041,249.661412 L135.356172,254.205383 L120.209602,260.69677 L104.197513,260.69677 L90.3492204,254.205383 L81.0448986,245.11744 L74.7698909,232.567425 L71.5241973,218.502753 L71.5241973,192.104444 L74.7698909,178.039772 L80.8285191,165.922516 L90.5656,156.401814 L104.197513,150.126807 L120.209602,150.126807 L134.923413,156.618194 L140.765662,161.162165 L149.853604,171.548385 L166.731211,155.536296 L156.344991,143.41904 L146.60791,135.845755 L123.671675,126.757812 L99.6535422,126.757812 L76.9336867,136.711273 L61.3543572,151.857843 L52.2664151,170.682866 L48.1552031,189.507889 L48.1552031,221.315687 L52.2664151,239.707951 L61.5707368,258.965733 L76.284548,273.895924 L99.6535422,284.065764 Z M234.025259,284.065764 L258.476151,284.065764 L281.845145,273.895924 L296.558956,258.965733 L305.863278,239.707951 L309.97449,221.315687 L309.97449,189.507889 L305.863278,170.682866 L296.775336,151.857843 L281.196006,136.711273 L258.476151,126.757812 L234.025259,126.757812 L211.521783,136.711273 L195.942453,151.857843 L186.638132,170.682866 L182.52692,189.507889 L182.52692,221.315687 L186.638132,239.707951 L196.158833,258.965733 L210.872644,273.895924 L234.025259,284.065764 Z M239.001989,260.69677 L224.720937,254.205383 L215.632995,244.901061 L208.925228,231.918286 L206.112293,218.719132 L206.112293,192.320824 L209.141608,178.039772 L215.416615,165.922516 L224.937317,156.401814 L238.56923,150.126807 L253.93218,150.126807 L267.780473,156.401814 L277.301174,165.922516 L283.576182,178.039772 L286.605496,192.104444 L286.605496,218.502753 L283.576182,232.567425 L277.084794,245.11744 L267.996852,254.205383 L253.93218,260.69677 L239.001989,260.69677 Z M363.853004,259.182113 L363.853004,128.488849 L340.48401,128.488849 L340.48401,282.334728 L431.147052,282.334728 L431.147052,259.182113 L363.853004,259.182113 Z M476.803143,259.182113 L476.803143,128.488849 L453.434149,128.488849 L453.434149,282.334728 L544.097191,282.334728 L544.097191,259.182113 L476.803143,259.182113 Z M591.267938,151.641464 L666.568031,151.641464 L666.568031,128.488849 L567.682565,128.488849 L567.682565,282.334728 L666.568031,282.334728 L666.568031,259.182113 L591.267938,259.182113 L591.267938,212.444125 L643.199037,212.444125 L643.199037,189.07513 L591.267938,189.07513 L591.267938,151.641464 Z M737.756911,284.065764 L761.775044,284.065764 L784.711279,274.977822 L794.44836,267.404537 L804.83458,255.287281 L787.956973,239.275192 L779.08541,249.661412 L773.459541,254.205383 L758.312971,260.69677 L742.300882,260.69677 L728.452589,254.205383 L719.148268,245.11744 L712.87326,232.567425 L709.627566,218.502753 L709.627566,192.104444 L712.87326,178.039772 L718.931888,165.922516 L728.668969,156.401814 L742.300882,150.126807 L758.312971,150.126807 L773.026782,156.618194 L778.869031,161.162165 L787.956973,171.548385 L804.83458,155.536296 L794.44836,143.41904 L784.711279,135.845755 L761.775044,126.757812 L737.756911,126.757812 L715.037056,136.711273 L699.457726,151.857843 L690.369784,170.682866 L686.258572,189.507889 L686.258572,221.315687 L690.369784,239.707951 L699.674106,258.965733 L714.387917,273.895924 L737.756911,284.065764 Z M879.701913,282.334728 L879.701913,151.641464 L919.732134,151.641464 L919.732134,128.488849 L816.951836,128.488849 L816.951836,151.641464 L856.116539,151.641464 L856.116539,282.334728 L879.701913,282.334728 Z M965.388225,282.334728 L965.388225,128.488849 L942.019231,128.488849 L942.019231,282.334728 L965.388225,282.334728 Z M1046.96333,284.065764 L1071.41422,284.065764 L1094.78321,273.895924 L1109.49702,258.965733 L1118.80134,239.707951 L1122.91256,221.315687 L1122.91256,189.507889 L1118.80134,170.682866 L1109.7134,151.857843 L1094.13407,136.711273 L1071.41422,126.757812 L1046.96333,126.757812 L1024.45985,136.711273 L1008.88052,151.857843 L999.576198,170.682866 L995.464986,189.507889 L995.464986,221.315687 L999.576198,239.707951 L1009.0969,258.965733 L1023.81071,273.895924 L1046.96333,284.065764 Z M1051.94006,260.69677 L1037.659,254.205383 L1028.57106,244.901061 L1021.86329,231.918286 L1019.05036,218.719132 L1019.05036,192.320824 L1022.07967,178.039772 L1028.35468,165.922516 L1037.87538,156.401814 L1051.5073,150.126807 L1066.87025,150.126807 L1080.71854,156.401814 L1090.23924,165.922516 L1096.51425,178.039772 L1099.54356,192.104444 L1099.54356,218.502753 L1096.51425,232.567425 L1090.02286,245.11744 L1080.93492,254.205383 L1066.87025,260.69677 L1051.94006,260.69677 Z M1155.15311,128.488849 L1155.15311,282.334728 L1178.73849,282.334728 L1178.73849,174.577699 L1252.30754,282.334728 L1275.46016,282.334728 L1275.46016,128.488849 L1251.87478,128.488849 L1251.87478,241.222608 L1174.4109,128.488849 L1155.15311,128.488849 Z M1311.59555,267.620916 L1324.57832,276.708859 L1348.59645,284.065764 L1373.69648,284.065764 L1397.71462,275.194202 L1408.5336,262.644186 L1414.15947,250.743309 L1414.15947,229.105352 L1407.23532,212.011365 L1389.70857,199.894109 L1345.9999,187.776853 L1336.26282,180.852706 L1334.53178,177.607013 L1332.80074,169.384589 L1335.18092,160.729406 L1342.10507,153.58888 L1352.70767,150.126807 L1368.71975,150.126807 L1386.2465,154.670778 L1400.74393,163.109581 L1413.29395,143.41904 L1396.63272,133.03282 L1372.18183,126.757812 L1349.24559,126.757812 L1328.90591,133.465579 L1314.62486,148.39577 L1308.56623,167.437173 L1311.59555,186.045816 L1318.95245,197.730313 L1336.26282,209.84757 C1343.33122,211.722857 1350.36355,213.670273 1357.35983,215.689818 C1364.3561,217.709363 1371.31631,219.656779 1378.24046,221.532067 L1386.67926,226.076038 L1390.79047,234.298462 L1390.79047,245.11744 L1388.19392,250.31055 L1384.29908,255.070901 L1370.01803,260.69677 L1352.92405,260.69677 L1335.83006,255.72004 L1327.60763,250.31055 L1321.76539,242.953645 L1304.88778,259.182113 L1311.59555,267.620916 Z" id="COLLECTIONS" sketch:type="MSShapeGroup"></path>
        </g>
    </g>
</svg>