<?xml version="1.0" encoding="UTF-8" standalone="no"?>
<svg width="850px" height="148px" viewBox="0 0 850 148" version="1.1" xmlns="http://www.w3.org/2000/svg" xmlns:xlink="http://www.w3.org/1999/xlink" xmlns:sketch="http://www.bohemiancoding.com/sketch/ns">
    <!-- Generator: Sketch 3.2.2 (9983) - http://www.bohemiancoding.com/sketch -->
    <title>SIGNUP</title>
    <desc>Created with Sketch.</desc>
    <defs></defs>
    <g id="Page-1" stroke="none" stroke-width="1" fill="none" fill-rule="evenodd" sketch:type="MSPage">
        <g id="1024" sketch:type="MSArtboardGroup" transform="translate(-4.000000, -1154.000000)" fill="#000000" opacity="0.0399999991">
            <path d="M4.82421875,1254.05859 C6.22070312,1280.8457 27.6757812,1301.53906 70.078125,1301.53906 C112.099609,1301.53906 132.285156,1282.11523 132.285156,1256.34375 C132.285156,1233.61914 118.447266,1220.54297 91.40625,1213.43359 L62.7148437,1206.07031 C52.9394531,1203.4043 49.2578125,1200.10352 49.2578125,1195.40625 C49.2578125,1189.69336 54.4628906,1185.50391 65.2539062,1185.50391 C76.0449219,1185.50391 84.5507812,1190.70898 85.5664062,1201.24609 L127.714844,1201.24609 C125.048828,1171.1582 103.720703,1154.78125 66.7773438,1154.78125 C27.5488281,1154.78125 7.87109375,1173.82422 7.87109375,1198.96094 C7.87109375,1220.92383 20.6933594,1235.39648 48.4960937,1242.125 L77.6953125,1249.48828 C87.4707031,1252.1543 90.8984375,1255.20117 90.8984375,1260.66016 C90.8984375,1263.07227 89.6289062,1265.35742 86.9628906,1267.51562 C84.296875,1269.67383 79.4726562,1270.81641 72.3632812,1270.81641 C57.7636719,1270.81641 48.3691406,1264.84961 46.9726562,1254.05859 L4.82421875,1254.05859 Z M144.599609,1299 L227.373047,1299 L227.373047,1272.33984 L206.806641,1272.33984 L206.806641,1183.98047 L227.373047,1183.98047 L227.373047,1157.32031 L144.599609,1157.32031 L144.599609,1183.98047 L165.166016,1183.98047 L165.166016,1272.33984 L144.599609,1272.33984 L144.599609,1299 Z M312.304688,1301.53906 C329.570312,1301.53906 343.789062,1296.8418 351.914062,1286.05078 L351.914062,1299 L383.398438,1299 L383.398438,1222.32031 L315.605469,1222.32031 L315.605469,1250.75781 L342.519531,1250.75781 C341.630859,1254.69336 339.345703,1258.375 335.410156,1261.80273 C331.474609,1265.23047 325.253906,1267.00781 316.621094,1267.00781 C290.214844,1267.00781 284.628906,1246.69531 284.628906,1228.16016 C284.628906,1209.24414 290.214844,1190.07422 314.335938,1190.07422 C328.554688,1190.07422 335.791016,1197.05664 339.21875,1205.5625 L381.367188,1205.5625 C375.908203,1171.03125 348.232422,1154.78125 314.335938,1154.78125 C270.283203,1154.78125 242.480469,1180.04492 242.480469,1228.16016 C242.480469,1276.27539 270.537109,1301.53906 312.304688,1301.53906 L312.304688,1301.53906 Z M410.058594,1299 L449.414062,1299 L449.414062,1211.40234 L492.578125,1299 L543.613281,1299 L543.613281,1157.32031 L504.257812,1157.32031 L504.257812,1244.91797 L461.09375,1157.32031 L410.058594,1157.32031 L410.058594,1299 Z M571.542969,1241.87109 C571.542969,1283.89258 596.171875,1301.53906 637.050781,1301.53906 C657.490234,1301.53906 673.613281,1296.8418 685.166016,1287.44727 C696.71875,1278.05273 702.558594,1262.81836 702.558594,1241.61719 L702.558594,1157.32031 L660.917969,1157.32031 L660.917969,1239.33203 C660.917969,1257.61328 653.300781,1265.48438 637.050781,1265.48438 C620.800781,1265.48438 613.183594,1257.61328 613.183594,1239.33203 L613.183594,1157.32031 L571.542969,1157.32031 L571.542969,1241.87109 Z M730.488281,1299 L772.128906,1299 L772.128906,1258.62891 L784.0625,1258.62891 C826.464844,1258.62891 853.632812,1243.77539 853.632812,1208.10156 C853.632812,1172.68164 826.464844,1157.32031 784.0625,1157.32031 L730.488281,1157.32031 L730.488281,1299 Z M772.128906,1225.36719 L772.128906,1190.83594 L785.332031,1190.83594 C802.216797,1190.83594 810.46875,1195.2793 810.46875,1208.10156 C810.46875,1220.92383 802.216797,1225.36719 785.332031,1225.36719 L772.128906,1225.36719 Z" id="SIGNUP" sketch:type="MSShapeGroup"></path>
        </g>
    </g>
</svg>