<?xml version="1.0" encoding="UTF-8" standalone="no"?>
<svg width="1368px" height="159px" viewBox="0 0 1368 159" version="1.1" xmlns="http://www.w3.org/2000/svg" xmlns:xlink="http://www.w3.org/1999/xlink" xmlns:sketch="http://www.bohemiancoding.com/sketch/ns">
    <!-- Generator: Sketch 3.2.2 (9983) - http://www.bohemiancoding.com/sketch -->
    <title>COLLECTIONS</title>
    <desc>Created with Sketch.</desc>
    <defs></defs>
    <g id="Page-1" stroke="none" stroke-width="1" fill="none" fill-rule="evenodd" sketch:type="MSPage">
        <g id="Artboard-14" sketch:type="MSArtboardGroup" transform="translate(-24.000000, -341.000000)" stroke="#000000" fill="#FFFFFF" fill-opacity="0" opacity="0.300000012">
            <path d="M76.0582707,498.926882 L100.076404,498.926882 L123.012639,489.83894 L132.74972,482.265655 L143.135939,470.148398 L126.258332,454.13631 L117.38677,464.52253 L111.760901,469.066501 L96.6143304,475.557888 L80.6022417,475.557888 L66.7539489,469.066501 L57.4496271,459.978558 L51.1746194,447.428543 L47.9289258,433.363871 L47.9289258,406.965562 L51.1746194,392.90089 L57.2332476,380.783634 L66.9703285,371.262932 L80.6022417,364.987925 L96.6143304,364.987925 L111.328142,371.479312 L117.17039,376.023283 L126.258332,386.409503 L143.135939,370.397414 L132.74972,358.280158 L123.012639,350.706873 L100.076404,341.61893 L76.0582707,341.61893 L53.3384152,351.572391 L37.7590857,366.718961 L28.6711436,385.543984 L24.5599316,404.369007 L24.5599316,436.176805 L28.6711436,454.569069 L37.9754653,473.826851 L52.6892765,488.757042 L76.0582707,498.926882 Z M210.429987,498.926882 L234.880879,498.926882 L258.249873,488.757042 L272.963685,473.826851 L282.268006,454.569069 L286.379218,436.176805 L286.379218,404.369007 L282.268006,385.543984 L273.180064,366.718961 L257.600735,351.572391 L234.880879,341.61893 L210.429987,341.61893 L187.926511,351.572391 L172.347182,366.718961 L163.04286,385.543984 L158.931648,404.369007 L158.931648,436.176805 L163.04286,454.569069 L172.563561,473.826851 L187.277373,488.757042 L210.429987,498.926882 Z M215.406717,475.557888 L201.125665,469.066501 L192.037723,459.762179 L185.329956,446.779404 L182.517022,433.58025 L182.517022,407.181942 L185.546336,392.90089 L191.821344,380.783634 L201.342045,371.262932 L214.973958,364.987925 L230.336908,364.987925 L244.185201,371.262932 L253.705902,380.783634 L259.98091,392.90089 L263.010224,406.965562 L263.010224,433.363871 L259.98091,447.428543 L253.489523,459.978558 L244.401581,469.066501 L230.336908,475.557888 L215.406717,475.557888 Z M340.257733,474.043231 L340.257733,343.349967 L316.888739,343.349967 L316.888739,497.195845 L407.551781,497.195845 L407.551781,474.043231 L340.257733,474.043231 Z M453.207871,474.043231 L453.207871,343.349967 L429.838877,343.349967 L429.838877,497.195845 L520.501919,497.195845 L520.501919,474.043231 L453.207871,474.043231 Z M567.672667,366.502582 L642.972759,366.502582 L642.972759,343.349967 L544.087293,343.349967 L544.087293,497.195845 L642.972759,497.195845 L642.972759,474.043231 L567.672667,474.043231 L567.672667,427.305242 L619.603765,427.305242 L619.603765,403.936248 L567.672667,403.936248 L567.672667,366.502582 Z M714.16164,498.926882 L738.179773,498.926882 L761.116008,489.83894 L770.853089,482.265655 L781.239308,470.148398 L764.361701,454.13631 L755.490139,464.52253 L749.86427,469.066501 L734.717699,475.557888 L718.705611,475.557888 L704.857318,469.066501 L695.552996,459.978558 L689.277988,447.428543 L686.032295,433.363871 L686.032295,406.965562 L689.277988,392.90089 L695.336617,380.783634 L705.073698,371.262932 L718.705611,364.987925 L734.717699,364.987925 L749.431511,371.479312 L755.273759,376.023283 L764.361701,386.409503 L781.239308,370.397414 L770.853089,358.280158 L761.116008,350.706873 L738.179773,341.61893 L714.16164,341.61893 L691.441784,351.572391 L675.862455,366.718961 L666.774513,385.543984 L662.663301,404.369007 L662.663301,436.176805 L666.774513,454.569069 L676.078834,473.826851 L690.792646,488.757042 L714.16164,498.926882 Z M856.106641,497.195845 L856.106641,366.502582 L896.136863,366.502582 L896.136863,343.349967 L793.356564,343.349967 L793.356564,366.502582 L832.521268,366.502582 L832.521268,497.195845 L856.106641,497.195845 Z M941.792953,497.195845 L941.792953,343.349967 L918.423959,343.349967 L918.423959,497.195845 L941.792953,497.195845 Z M1023.36805,498.926882 L1047.81895,498.926882 L1071.18794,488.757042 L1085.90175,473.826851 L1095.20607,454.569069 L1099.31728,436.176805 L1099.31728,404.369007 L1095.20607,385.543984 L1086.11813,366.718961 L1070.5388,351.572391 L1047.81895,341.61893 L1023.36805,341.61893 L1000.86458,351.572391 L985.285248,366.718961 L975.980926,385.543984 L971.869714,404.369007 L971.869714,436.176805 L975.980926,454.569069 L985.501628,473.826851 L1000.21544,488.757042 L1023.36805,498.926882 Z M1028.34478,475.557888 L1014.06373,469.066501 L1004.97579,459.762179 L998.268023,446.779404 L995.455088,433.58025 L995.455088,407.181942 L998.484402,392.90089 L1004.75941,380.783634 L1014.28011,371.262932 L1027.91202,364.987925 L1043.27497,364.987925 L1057.12327,371.262932 L1066.64397,380.783634 L1072.91898,392.90089 L1075.94829,406.965562 L1075.94829,433.363871 L1072.91898,447.428543 L1066.42759,459.978558 L1057.33965,469.066501 L1043.27497,475.557888 L1028.34478,475.557888 Z M1131.55784,343.349967 L1131.55784,497.195845 L1155.14322,497.195845 L1155.14322,389.438817 L1228.71227,497.195845 L1251.86489,497.195845 L1251.86489,343.349967 L1228.27951,343.349967 L1228.27951,456.083726 L1150.81562,343.349967 L1131.55784,343.349967 Z M1288.00027,482.482034 L1300.98305,491.569976 L1325.00118,498.926882 L1350.10121,498.926882 L1374.11935,490.055319 L1384.93832,477.505304 L1390.56419,465.604427 L1390.56419,443.96647 L1383.64005,426.872483 L1366.1133,414.755227 L1322.40463,402.637971 L1312.66755,395.713824 L1310.93651,392.468131 L1309.20547,384.245707 L1311.58565,375.590524 L1318.50979,368.449998 L1329.11239,364.987925 L1345.12448,364.987925 L1362.65123,369.531896 L1377.14866,377.970699 L1389.69868,358.280158 L1373.03745,347.893938 L1348.58656,341.61893 L1325.65032,341.61893 L1305.31064,348.326697 L1291.02959,363.256888 L1284.97096,382.298291 L1288.00027,400.906934 L1295.35718,412.591431 L1312.66755,424.708688 C1319.73595,426.583975 1326.76828,428.531391 1333.76456,430.550936 C1340.76083,432.570481 1347.72104,434.517897 1354.64518,436.393185 L1363.08399,440.937156 L1367.1952,449.15958 L1367.1952,459.978558 L1364.59864,465.171668 L1360.70381,469.932019 L1346.42276,475.557888 L1329.32877,475.557888 L1312.23479,470.581158 L1304.01236,465.171668 L1298.17011,457.814763 L1281.29251,474.043231 L1288.00027,482.482034 Z" id="COLLECTIONS" sketch:type="MSShapeGroup"></path>
        </g>
    </g>
</svg>