<?xml version="1.0" encoding="UTF-8" standalone="no"?>
<svg width="1464px" height="127px" viewBox="0 0 1464 127" version="1.1" xmlns="http://www.w3.org/2000/svg" xmlns:xlink="http://www.w3.org/1999/xlink" xmlns:sketch="http://www.bohemiancoding.com/sketch/ns">
    <!-- Generator: Sketch 3.2.2 (9983) - http://www.bohemiancoding.com/sketch -->
    <title>COLLECTIONS</title>
    <desc>Created with Sketch.</desc>
    <defs></defs>
    <g id="Page-1" stroke="none" stroke-width="1" fill="none" fill-rule="evenodd" sketch:type="MSPage">
        <g id="Artboard-14" sketch:type="MSArtboardGroup" fill="#000000" opacity="0.0700000003">
            <path d="M74.9609375,68.1054688 C74.5800781,74.1992188 72.421875,79.53125 68.2324219,83.9746094 C64.0429688,88.4179688 57.9492188,90.703125 49.8242188,90.703125 C28.1152344,90.703125 23.1640625,71.6601562 23.1640625,53.3789062 C23.1640625,35.0976562 28.1152344,16.0546875 49.8242188,16.0546875 C57.9492188,16.0546875 64.0429688,18.3398438 68.2324219,22.7832031 C72.421875,27.2265625 74.5800781,32.5585938 74.9609375,38.6523438 L117.109375,38.6523438 C114.443359,0.3125 86.5136719,-20 49.3164062,-20 C7.80273438,-20 -20,5.26367188 -20,53.3789062 C-20,101.494141 7.80273438,126.757812 49.0625,126.757812 C86.3867188,126.757812 114.443359,106.445312 117.109375,68.1054688 L74.9609375,68.1054688 Z M204.833984,90.703125 C181.09375,90.703125 176.142578,71.9140625 176.142578,53.3789062 C176.142578,34.84375 181.09375,16.0546875 204.833984,16.0546875 C228.574219,16.0546875 233.525391,34.84375 233.525391,53.3789062 C233.525391,71.9140625 228.574219,90.703125 204.833984,90.703125 L204.833984,90.703125 Z M204.833984,126.757812 C252.949219,126.757812 276.689453,97.1777344 276.689453,53.3789062 C276.689453,9.58007812 252.949219,-20 204.833984,-20 C156.71875,-20 132.978516,9.58007812 132.978516,53.3789062 C132.978516,97.1777344 156.71875,126.757812 204.833984,126.757812 L204.833984,126.757812 Z M299.541016,124.21875 L400.595703,124.21875 L400.595703,88.4179688 L341.181641,88.4179688 L341.181641,-17.4609375 L299.541016,-17.4609375 L299.541016,124.21875 Z M419.638672,124.21875 L520.693359,124.21875 L520.693359,88.4179688 L461.279297,88.4179688 L461.279297,-17.4609375 L419.638672,-17.4609375 L419.638672,124.21875 Z M539.736328,124.21875 L646.884766,124.21875 L646.884766,90.703125 L581.376953,90.703125 L581.376953,68.359375 L633.173828,68.359375 L633.173828,35.859375 L581.376953,35.859375 L581.376953,16.0546875 L646.884766,16.0546875 L646.884766,-17.4609375 L539.736328,-17.4609375 L539.736328,124.21875 Z M758.984375,68.1054688 C758.603516,74.1992188 756.445312,79.53125 752.255859,83.9746094 C748.066406,88.4179688 741.972656,90.703125 733.847656,90.703125 C712.138672,90.703125 707.1875,71.6601562 707.1875,53.3789062 C707.1875,35.0976562 712.138672,16.0546875 733.847656,16.0546875 C741.972656,16.0546875 748.066406,18.3398438 752.255859,22.7832031 C756.445312,27.2265625 758.603516,32.5585938 758.984375,38.6523438 L801.132812,38.6523438 C798.466797,0.3125 770.537109,-20 733.339844,-20 C691.826172,-20 664.023438,5.26367188 664.023438,53.3789062 C664.023438,101.494141 691.826172,126.757812 733.085938,126.757812 C770.410156,126.757812 798.466797,106.445312 801.132812,68.1054688 L758.984375,68.1054688 Z M851.914062,124.21875 L893.554688,124.21875 L893.554688,18.3398438 L932.402344,18.3398438 L932.402344,-17.4609375 L813.066406,-17.4609375 L813.066406,18.3398438 L851.914062,18.3398438 L851.914062,124.21875 Z M944.716797,124.21875 L1027.49023,124.21875 L1027.49023,97.5585937 L1006.92383,97.5585937 L1006.92383,9.19921875 L1027.49023,9.19921875 L1027.49023,-17.4609375 L944.716797,-17.4609375 L944.716797,9.19921875 L965.283203,9.19921875 L965.283203,97.5585937 L944.716797,97.5585937 L944.716797,124.21875 Z M1114.45312,90.703125 C1090.71289,90.703125 1085.76172,71.9140625 1085.76172,53.3789062 C1085.76172,34.84375 1090.71289,16.0546875 1114.45312,16.0546875 C1138.19336,16.0546875 1143.14453,34.84375 1143.14453,53.3789062 C1143.14453,71.9140625 1138.19336,90.703125 1114.45312,90.703125 L1114.45312,90.703125 Z M1114.45312,126.757812 C1162.56836,126.757812 1186.30859,97.1777344 1186.30859,53.3789062 C1186.30859,9.58007812 1162.56836,-20 1114.45312,-20 C1066.33789,-20 1042.59766,9.58007812 1042.59766,53.3789062 C1042.59766,97.1777344 1066.33789,126.757812 1114.45312,126.757812 L1114.45312,126.757812 Z M1209.16016,124.21875 L1248.51562,124.21875 L1248.51562,36.6210938 L1291.67969,124.21875 L1342.71484,124.21875 L1342.71484,-17.4609375 L1303.35938,-17.4609375 L1303.35938,70.1367188 L1260.19531,-17.4609375 L1209.16016,-17.4609375 L1209.16016,124.21875 Z M1362.77344,79.2773438 C1364.16992,106.064453 1385.625,126.757812 1428.02734,126.757812 C1470.04883,126.757812 1490.23438,107.333984 1490.23438,81.5625 C1490.23438,58.8378906 1476.39648,45.7617188 1449.35547,38.6523438 L1420.66406,31.2890625 C1410.88867,28.6230469 1407.20703,25.3222656 1407.20703,20.625 C1407.20703,14.9121094 1412.41211,10.7226562 1423.20312,10.7226562 C1433.99414,10.7226562 1442.5,15.9277344 1443.51562,26.4648438 L1485.66406,26.4648438 C1482.99805,-3.62304688 1461.66992,-20 1424.72656,-20 C1385.49805,-20 1365.82031,-0.95703125 1365.82031,24.1796875 C1365.82031,46.1425781 1378.64258,60.6152344 1406.44531,67.34375 L1435.64453,74.7070312 C1445.41992,77.3730469 1448.84766,80.4199219 1448.84766,85.8789062 C1448.84766,88.2910156 1447.57812,90.5761719 1444.91211,92.734375 C1442.24609,94.8925781 1437.42188,96.0351562 1430.3125,96.0351562 C1415.71289,96.0351562 1406.31836,90.0683594 1404.92188,79.2773438 L1362.77344,79.2773438 Z" id="COLLECTIONS" sketch:type="MSShapeGroup"></path>
        </g>
    </g>
</svg>