<?xml version="1.0" encoding="UTF-8" standalone="no"?>
<svg width="670px" height="148px" viewBox="0 0 670 148" version="1.1" xmlns="http://www.w3.org/2000/svg" xmlns:xlink="http://www.w3.org/1999/xlink" xmlns:sketch="http://www.bohemiancoding.com/sketch/ns">
    <!-- Generator: Sketch 3.2.2 (9983) - http://www.bohemiancoding.com/sketch -->
    <title>LOGIN</title>
    <desc>Created with Sketch.</desc>
    <defs></defs>
    <g id="Page-1" stroke="none" stroke-width="1" fill="none" fill-rule="evenodd" sketch:type="MSPage">
        <g id="1024" sketch:type="MSArtboardGroup" transform="translate(-15.000000, -1154.000000)" fill="#000000" opacity="0.0399999991">
            <path d="M15.234375,1299 L116.289062,1299 L116.289062,1263.19922 L56.875,1263.19922 L56.875,1157.32031 L15.234375,1157.32031 L15.234375,1299 Z M197.03125,1265.48438 C173.291016,1265.48438 168.339844,1246.69531 168.339844,1228.16016 C168.339844,1209.625 173.291016,1190.83594 197.03125,1190.83594 C220.771484,1190.83594 225.722656,1209.625 225.722656,1228.16016 C225.722656,1246.69531 220.771484,1265.48438 197.03125,1265.48438 L197.03125,1265.48438 Z M197.03125,1301.53906 C245.146484,1301.53906 268.886719,1271.95898 268.886719,1228.16016 C268.886719,1184.36133 245.146484,1154.78125 197.03125,1154.78125 C148.916016,1154.78125 125.175781,1184.36133 125.175781,1228.16016 C125.175781,1271.95898 148.916016,1301.53906 197.03125,1301.53906 L197.03125,1301.53906 Z M353.945312,1301.53906 C371.210938,1301.53906 385.429688,1296.8418 393.554688,1286.05078 L393.554688,1299 L425.039062,1299 L425.039062,1222.32031 L357.246094,1222.32031 L357.246094,1250.75781 L384.160156,1250.75781 C383.271484,1254.69336 380.986328,1258.375 377.050781,1261.80273 C373.115234,1265.23047 366.894531,1267.00781 358.261719,1267.00781 C331.855469,1267.00781 326.269531,1246.69531 326.269531,1228.16016 C326.269531,1209.24414 331.855469,1190.07422 355.976562,1190.07422 C370.195312,1190.07422 377.431641,1197.05664 380.859375,1205.5625 L423.007812,1205.5625 C417.548828,1171.03125 389.873047,1154.78125 355.976562,1154.78125 C311.923828,1154.78125 284.121094,1180.04492 284.121094,1228.16016 C284.121094,1276.27539 312.177734,1301.53906 353.945312,1301.53906 L353.945312,1301.53906 Z M444.589844,1299 L527.363281,1299 L527.363281,1272.33984 L506.796875,1272.33984 L506.796875,1183.98047 L527.363281,1183.98047 L527.363281,1157.32031 L444.589844,1157.32031 L444.589844,1183.98047 L465.15625,1183.98047 L465.15625,1272.33984 L444.589844,1272.33984 L444.589844,1299 Z M550.722656,1299 L590.078125,1299 L590.078125,1211.40234 L633.242188,1299 L684.277344,1299 L684.277344,1157.32031 L644.921875,1157.32031 L644.921875,1244.91797 L601.757812,1157.32031 L550.722656,1157.32031 L550.722656,1299 Z" id="LOGIN" sketch:type="MSShapeGroup"></path>
        </g>
    </g>
</svg>