<?xml version="1.0" encoding="UTF-8" standalone="no"?>
<svg width="78px" height="19px" viewBox="0 0 78 19" version="1.1" xmlns="http://www.w3.org/2000/svg" xmlns:xlink="http://www.w3.org/1999/xlink" xmlns:sketch="http://www.bohemiancoding.com/sketch/ns">
    <!-- Generator: Sketch 3.3.2 (12043) - http://www.bohemiancoding.com/sketch -->
    <title>Artboard 18 Copy</title>
    <desc>Created with Sketch.</desc>
    <defs></defs>
    <g id="Page-1" stroke="none" stroke-width="1" fill="none" fill-rule="evenodd" sketch:type="MSPage">
        <g id="Artboard-18-Copy" sketch:type="MSArtboardGroup" opacity="0.866254664">
            <path d="M7.42071697,4.05307759 C6.21683254,2.84919316 5.85566721,2.64854575 4.8123007,2.64854575 C4.65178278,2.64854575 4.65178278,2.64854575 3.3275099,2.72880471 C2.60517924,2.7689342 2.40453184,2.84919316 2.08349599,3.13009953 C1.36116533,3.8123007 1,5.41747995 1,8.18641414 C1,11.2763842 1.48155377,13.844671 2.28414339,15.2893323 C2.56504976,15.7708861 3.04660354,15.931404 4.17022901,15.931404 C4.97281863,15.931404 6.13657358,15.8110156 6.45760943,15.6906271 C6.77864528,15.5702387 7.09968113,15.3294618 7.54110542,14.8880375 C8.46408348,15.2492028 8.78511933,15.4097207 9.94887428,16.1320514 C13.2796212,18.1385255 14.4835056,18.6200792 16.1288144,18.6200792 C16.6906271,18.6200792 17.0517924,18.6200792 18.0149,18.5398203 C18.9780075,18.8608561 19.5799497,18.9812446 19.9812446,18.9812446 C21.1449995,18.9812446 22.2284955,18.098396 22.2284955,17.1352884 C22.2284955,16.9747705 22.2284955,16.8543821 22.188366,16.6136052 C22.5896608,16.7741231 22.8304377,16.8142526 23.0310851,16.8142526 C24.355358,16.8142526 25.5191129,15.6103681 25.5191129,14.1657068 C25.5191129,13.844671 25.4789835,13.6038941 25.2783361,13.0822108 C26.6828679,13.0019519 27.6459754,11.9987148 27.6459754,10.6343125 C27.6459754,9.91198183 27.525587,9.5508165 27.0440332,8.78835636 L31.5385351,8.78835636 C34.949541,8.78835636 36.2738139,8.62783843 37.1967919,8.02589622 C37.7987342,7.62460141 38.0796405,7.14304763 38.0796405,6.50097594 C38.0796405,5.7385158 37.5980868,5.01618514 36.9158856,4.69514929 C36.113296,4.37411344 34.9094115,4.17346603 32.6621606,4.01294811 C27.1242922,3.69191226 27.1242922,3.69191226 24.435617,3.25048797 C23.191603,1.76569717 22.3087545,1.12362547 21.10487,0.842719103 C20.2220214,0.642071697 19.5799497,0.521683254 19.1786549,0.401294811 C17.6136052,0.0401294811 17.4530872,0 16.5702387,0 C15.4867427,0 14.3229877,0.240776887 13.3598802,0.601942216 C12.1158663,1.12362547 9.9087448,2.44789835 8.94563726,3.25048797 C8.2233066,3.89255967 8.02265919,4.01294811 7.42071697,4.05307759 L7.42071697,4.05307759 Z M26.5624795,7.66473089 C26.52235,6.74175282 26.2815731,6.05955165 25.5993719,5.05631462 C25.5191129,4.93592617 25.3987245,4.73527877 25.2783361,4.49450188 C25.7598898,4.57476084 27.4051986,4.69514929 30.2142622,4.93592617 C33.7857861,5.21683254 35.5514832,5.37735047 35.5916127,5.37735047 C36.4744613,5.57799787 36.9560151,5.97929268 36.9560151,6.54110542 C36.9560151,6.86214127 36.5145908,7.26343608 36.0731665,7.38382452 C35.3909653,7.58447193 33.4246207,7.66473089 28.2479177,7.66473089 L26.5624795,7.66473089 Z M7.01942216,5.17670306 C7.17994009,5.21683254 7.30032853,5.25696202 7.38058749,5.25696202 C7.98252971,5.25696202 8.54434245,4.97605566 9.46732051,4.253725 C10.590946,3.41100589 12.5572906,2.20712146 13.6407865,1.72556769 C14.6440236,1.28414339 15.5670016,1.08349599 16.5301092,1.08349599 C17.1320514,1.08349599 18.3760653,1.32427288 19.7805972,1.68543821 C21.9475891,2.28738042 22.5094019,2.64854575 23.6731568,4.253725 C24.5961349,5.49773891 25.438854,7.06278867 25.438854,7.50421296 C25.438854,7.98576674 24.9573002,8.30680259 24.2349696,8.30680259 C23.1514736,8.30680259 22.2284955,7.74498985 21.4660354,6.62136438 C21.1449995,6.17994009 21.1449995,6.17994009 20.4226688,5.9391632 C19.4996908,5.57799787 19.4996908,5.57799787 19.0582665,5.45760943 C18.2958064,6.42071697 17.4129578,7.18317712 16.0886849,8.02589622 C15.0453184,8.7080974 13.9618224,8.98900376 12.3165137,8.98900376 L12.1158663,8.98900376 C10.9119818,8.86861532 10.9119818,8.86861532 10.8718523,8.86861532 C10.5508165,8.86861532 10.3501691,9.02913325 10.3501691,9.31003961 C10.3501691,9.75146391 11.0323703,10.0724998 11.9954778,10.0724998 C12.7178085,10.0724998 14.4032467,9.83172287 15.0051889,9.67120494 C15.5268722,9.51068702 15.7275196,9.39029858 17.4932167,8.46732051 C17.5734757,8.82848584 17.6136052,8.94887428 17.7741231,9.22978065 C16.4899797,9.39029858 15.7275196,10.1126292 15.7275196,11.1961252 C15.7275196,11.3566431 15.767649,11.5572906 15.847908,11.8783264 C14.6440236,11.8783264 13.8414339,12.761175 13.8414339,14.0453184 C13.8414339,15.1288144 14.6440236,16.2524398 16.3695913,17.6168422 C14.9249299,17.4964538 13.680916,17.0550295 12.0356073,16.0517924 C10.6310755,15.2492028 9.78835636,14.767649 9.50744999,14.6071311 C8.2233066,14.0051889 8.2233066,14.0051889 7.54110542,13.6038941 C7.01942216,12.8815634 6.85890424,12.4802686 6.69838632,11.4369021 C6.57799787,10.8349599 6.49773891,9.95211131 6.49773891,9.51068702 C6.49773891,9.22978065 6.57799787,7.30356556 6.57799787,6.98252971 C6.65825683,6.05955165 6.69838632,5.9391632 7.01942216,5.17670306 L7.01942216,5.17670306 Z M25.7598898,9.02913325 C25.8401488,8.98900376 26.3217026,9.67120494 26.4019615,9.99224079 C26.4822205,10.1527587 26.5624795,10.4737946 26.5624795,10.6343125 C26.5624795,11.3967726 25.8401488,12.0789738 25.0776887,12.0789738 C24.7165233,12.0789738 23.271862,11.6375495 22.5094019,11.2763842 C22.3488839,11.2362547 20.5430573,10.2330177 20.181892,10.0323703 C19.0582665,9.39029858 18.5365832,8.74822688 18.5365832,8.02589622 C18.5365832,7.50421296 19.2187844,6.82201179 19.8207266,6.82201179 C20.1417625,6.82201179 20.3022804,6.94240023 20.6634457,7.46408348 C21.10487,8.10615518 21.8673302,8.78835636 22.3890134,8.98900376 C23.0310851,9.22978065 23.7534158,9.39029858 24.355358,9.39029858 C24.8369118,9.39029858 25.1178181,9.31003961 25.7598898,9.02913325 L25.7598898,9.02913325 Z M16.7708861,11.4369021 C16.7708861,10.8349599 17.3326988,10.2731472 17.9747705,10.2731472 C18.4161948,10.2731472 18.5365832,10.3132766 19.6602087,10.9954778 C20.181892,11.3165137 22.268625,12.3598802 23.352121,12.8414339 C23.8738042,13.0822108 24.355358,13.8045415 24.355358,14.2860953 C24.355358,14.9682964 23.7132863,15.6103681 23.0310851,15.6103681 C22.3890134,15.6103681 21.4259059,15.2090733 19.7805972,14.2459658 C17.6136052,12.9618224 16.7708861,12.1993623 16.7708861,11.4369021 L16.7708861,11.4369021 Z M14.9650594,13.9249299 C14.9650594,13.4433762 15.4466132,13.0420814 15.9682964,13.0420814 C16.2090733,13.0420814 16.3695913,13.1223403 16.6906271,13.4433762 C17.0517924,13.844671 17.6938641,14.2860953 18.5365832,14.8077785 C20.2220214,15.8110156 20.2220214,15.8110156 20.5029278,16.0517924 C20.9443521,16.4530872 21.1449995,16.7339936 21.1449995,17.0149 C21.1449995,17.5365832 20.5831868,17.937878 19.8207266,17.937878 C18.8977486,17.937878 17.8543821,17.4161948 16.5702387,16.3326988 C15.5670016,15.4498502 14.9650594,14.5670016 14.9650594,13.9249299 L14.9650594,13.9249299 Z M5.37411344,8.78835636 C5.37411344,10.5540535 5.61489033,12.2796212 6.05631462,13.2427288 C6.33722099,13.9249299 6.41747995,14.1255773 6.41747995,14.2459658 C6.41747995,14.6472606 5.93592617,14.7275196 4.04984056,14.7275196 C3.3275099,14.7275196 3.16699198,14.6071311 2.88608561,13.9249299 C2.28414339,12.4401391 2.04336651,10.7547009 2.04336651,8.42719103 C2.04336651,6.5812349 2.20388443,5.05631462 2.44466132,4.41424292 C2.64530872,3.93268915 2.92621509,3.8123007 3.7689342,3.8123007 L3.9695816,3.8123007 L4.57152382,3.8123007 C4.8123007,3.77217122 4.93268915,3.77217122 5.09320707,3.77217122 C5.57476084,3.77217122 6.01618514,4.05307759 6.01618514,4.29385448 L5.37411344,8.78835636 Z" id="☞" fill="#4F5056" sketch:type="MSShapeGroup"></path>
            <g id="Path-+-☞-copy" sketch:type="MSLayerGroup" transform="translate(40.188717, 0.000000)">
                <path d="M6.42071697,4.05307759 C5.21683254,2.84919316 4.85566721,2.64854575 3.8123007,2.64854575 C3.65178278,2.64854575 3.65178278,2.64854575 2.3275099,2.72880471 C1.60517924,2.7689342 1.40453184,2.84919316 1.08349599,3.13009953 C0.36116533,3.8123007 0,5.41747995 0,8.18641414 C0,11.2763842 0.481553773,13.844671 1.28414339,15.2893323 C1.56504976,15.7708861 2.04660354,15.931404 3.17022901,15.931404 C3.97281863,15.931404 5.13657358,15.8110156 5.45760943,15.6906271 C5.77864528,15.5702387 6.09968113,15.3294618 6.54110542,14.8880375 C7.46408348,15.2492028 7.78511933,15.4097207 8.94887428,16.1320514 C12.2796212,18.1385255 13.4835056,18.6200792 15.1288144,18.6200792 C15.6906271,18.6200792 16.0517924,18.6200792 17.0149,18.5398203 C17.9780075,18.8608561 18.5799497,18.9812446 18.9812446,18.9812446 C20.1449995,18.9812446 21.2284955,18.098396 21.2284955,17.1352884 C21.2284955,16.9747705 21.2284955,16.8543821 21.188366,16.6136052 C21.5896608,16.7741231 21.8304377,16.8142526 22.0310851,16.8142526 C23.355358,16.8142526 24.5191129,15.6103681 24.5191129,14.1657068 C24.5191129,13.844671 24.4789835,13.6038941 24.2783361,13.0822108 C25.6828679,13.0019519 26.6459754,11.9987148 26.6459754,10.6343125 C26.6459754,9.91198183 26.525587,9.5508165 26.0440332,8.78835636 L30.5385351,8.78835636 C33.949541,8.78835636 35.2738139,8.62783843 36.1967919,8.02589622 C36.7987342,7.62460141 37.0796405,7.14304763 37.0796405,6.50097594 C37.0796405,5.7385158 36.5980868,5.01618514 35.9158856,4.69514929 C35.113296,4.37411344 33.9094115,4.17346603 31.6621606,4.01294811 C26.1242922,3.69191226 26.1242922,3.69191226 23.435617,3.25048797 C22.191603,1.76569717 21.3087545,1.12362547 20.10487,0.842719103 C19.2220214,0.642071697 18.5799497,0.521683254 18.1786549,0.401294811 C16.6136052,0.0401294811 16.4530872,0 15.5702387,0 C14.4867427,0 13.3229877,0.240776887 12.3598802,0.601942216 C11.1158663,1.12362547 8.9087448,2.44789835 7.94563726,3.25048797 C7.2233066,3.89255967 7.02265919,4.01294811 6.42071697,4.05307759 L6.42071697,4.05307759 Z" id="Path" fill="#FFF20D" sketch:type="MSShapeGroup"></path>
                <path d="M6.42071697,4.05307759 C5.21683254,2.84919316 4.85566721,2.64854575 3.8123007,2.64854575 C3.65178278,2.64854575 3.65178278,2.64854575 2.3275099,2.72880471 C1.60517924,2.7689342 1.40453184,2.84919316 1.08349599,3.13009953 C0.36116533,3.8123007 0,5.41747995 0,8.18641414 C0,11.2763842 0.481553773,13.844671 1.28414339,15.2893323 C1.56504976,15.7708861 2.04660354,15.931404 3.17022901,15.931404 C3.97281863,15.931404 5.13657358,15.8110156 5.45760943,15.6906271 C5.77864528,15.5702387 6.09968113,15.3294618 6.54110542,14.8880375 C7.46408348,15.2492028 7.78511933,15.4097207 8.94887428,16.1320514 C12.2796212,18.1385255 13.4835056,18.6200792 15.1288144,18.6200792 C15.6906271,18.6200792 16.0517924,18.6200792 17.0149,18.5398203 C17.9780075,18.8608561 18.5799497,18.9812446 18.9812446,18.9812446 C20.1449995,18.9812446 21.2284955,18.098396 21.2284955,17.1352884 C21.2284955,16.9747705 21.2284955,16.8543821 21.188366,16.6136052 C21.5896608,16.7741231 21.8304377,16.8142526 22.0310851,16.8142526 C23.355358,16.8142526 24.5191129,15.6103681 24.5191129,14.1657068 C24.5191129,13.844671 24.4789835,13.6038941 24.2783361,13.0822108 C25.6828679,13.0019519 26.6459754,11.9987148 26.6459754,10.6343125 C26.6459754,9.91198183 26.525587,9.5508165 26.0440332,8.78835636 L30.5385351,8.78835636 C33.949541,8.78835636 35.2738139,8.62783843 36.1967919,8.02589622 C36.7987342,7.62460141 37.0796405,7.14304763 37.0796405,6.50097594 C37.0796405,5.7385158 36.5980868,5.01618514 35.9158856,4.69514929 C35.113296,4.37411344 33.9094115,4.17346603 31.6621606,4.01294811 C26.1242922,3.69191226 26.1242922,3.69191226 23.435617,3.25048797 C22.191603,1.76569717 21.3087545,1.12362547 20.10487,0.842719103 C19.2220214,0.642071697 18.5799497,0.521683254 18.1786549,0.401294811 C16.6136052,0.0401294811 16.4530872,0 15.5702387,0 C14.4867427,0 13.3229877,0.240776887 12.3598802,0.601942216 C11.1158663,1.12362547 8.9087448,2.44789835 7.94563726,3.25048797 C7.2233066,3.89255967 7.02265919,4.01294811 6.42071697,4.05307759 L6.42071697,4.05307759 Z M25.5624795,7.66473089 C25.52235,6.74175282 25.2815731,6.05955165 24.5993719,5.05631462 C24.5191129,4.93592617 24.3987245,4.73527877 24.2783361,4.49450188 C24.7598898,4.57476084 26.4051986,4.69514929 29.2142622,4.93592617 C32.7857861,5.21683254 34.5514832,5.37735047 34.5916127,5.37735047 C35.4744613,5.57799787 35.9560151,5.97929268 35.9560151,6.54110542 C35.9560151,6.86214127 35.5145908,7.26343608 35.0731665,7.38382452 C34.3909653,7.58447193 32.4246207,7.66473089 27.2479177,7.66473089 L25.5624795,7.66473089 Z M6.01942216,5.17670306 C6.17994009,5.21683254 6.30032853,5.25696202 6.38058749,5.25696202 C6.98252971,5.25696202 7.54434245,4.97605566 8.46732051,4.253725 C9.59094598,3.41100589 11.5572906,2.20712146 12.6407865,1.72556769 C13.6440236,1.28414339 14.5670016,1.08349599 15.5301092,1.08349599 C16.1320514,1.08349599 17.3760653,1.32427288 18.7805972,1.68543821 C20.9475891,2.28738042 21.5094019,2.64854575 22.6731568,4.253725 C23.5961349,5.49773891 24.438854,7.06278867 24.438854,7.50421296 C24.438854,7.98576674 23.9573002,8.30680259 23.2349696,8.30680259 C22.1514736,8.30680259 21.2284955,7.74498985 20.4660354,6.62136438 C20.1449995,6.17994009 20.1449995,6.17994009 19.4226688,5.9391632 C18.4996908,5.57799787 18.4996908,5.57799787 18.0582665,5.45760943 C17.2958064,6.42071697 16.4129578,7.18317712 15.0886849,8.02589622 C14.0453184,8.7080974 12.9618224,8.98900376 11.3165137,8.98900376 L11.1158663,8.98900376 C9.91198183,8.86861532 9.91198183,8.86861532 9.87185235,8.86861532 C9.5508165,8.86861532 9.35016909,9.02913325 9.35016909,9.31003961 C9.35016909,9.75146391 10.0323703,10.0724998 10.9954778,10.0724998 C11.7178085,10.0724998 13.4032467,9.83172287 14.0051889,9.67120494 C14.5268722,9.51068702 14.7275196,9.39029858 16.4932167,8.46732051 C16.5734757,8.82848584 16.6136052,8.94887428 16.7741231,9.22978065 C15.4899797,9.39029858 14.7275196,10.1126292 14.7275196,11.1961252 C14.7275196,11.3566431 14.767649,11.5572906 14.847908,11.8783264 C13.6440236,11.8783264 12.8414339,12.761175 12.8414339,14.0453184 C12.8414339,15.1288144 13.6440236,16.2524398 15.3695913,17.6168422 C13.9249299,17.4964538 12.680916,17.0550295 11.0356073,16.0517924 C9.63107546,15.2492028 8.78835636,14.767649 8.50744999,14.6071311 C7.2233066,14.0051889 7.2233066,14.0051889 6.54110542,13.6038941 C6.01942216,12.8815634 5.85890424,12.4802686 5.69838632,11.4369021 C5.57799787,10.8349599 5.49773891,9.95211131 5.49773891,9.51068702 C5.49773891,9.22978065 5.57799787,7.30356556 5.57799787,6.98252971 C5.65825683,6.05955165 5.69838632,5.9391632 6.01942216,5.17670306 L6.01942216,5.17670306 Z M24.7598898,9.02913325 C24.8401488,8.98900376 25.3217026,9.67120494 25.4019615,9.99224079 C25.4822205,10.1527587 25.5624795,10.4737946 25.5624795,10.6343125 C25.5624795,11.3967726 24.8401488,12.0789738 24.0776887,12.0789738 C23.7165233,12.0789738 22.271862,11.6375495 21.5094019,11.2763842 C21.3488839,11.2362547 19.5430573,10.2330177 19.181892,10.0323703 C18.0582665,9.39029858 17.5365832,8.74822688 17.5365832,8.02589622 C17.5365832,7.50421296 18.2187844,6.82201179 18.8207266,6.82201179 C19.1417625,6.82201179 19.3022804,6.94240023 19.6634457,7.46408348 C20.10487,8.10615518 20.8673302,8.78835636 21.3890134,8.98900376 C22.0310851,9.22978065 22.7534158,9.39029858 23.355358,9.39029858 C23.8369118,9.39029858 24.1178181,9.31003961 24.7598898,9.02913325 L24.7598898,9.02913325 Z M15.7708861,11.4369021 C15.7708861,10.8349599 16.3326988,10.2731472 16.9747705,10.2731472 C17.4161948,10.2731472 17.5365832,10.3132766 18.6602087,10.9954778 C19.181892,11.3165137 21.268625,12.3598802 22.352121,12.8414339 C22.8738042,13.0822108 23.355358,13.8045415 23.355358,14.2860953 C23.355358,14.9682964 22.7132863,15.6103681 22.0310851,15.6103681 C21.3890134,15.6103681 20.4259059,15.2090733 18.7805972,14.2459658 C16.6136052,12.9618224 15.7708861,12.1993623 15.7708861,11.4369021 L15.7708861,11.4369021 Z M13.9650594,13.9249299 C13.9650594,13.4433762 14.4466132,13.0420814 14.9682964,13.0420814 C15.2090733,13.0420814 15.3695913,13.1223403 15.6906271,13.4433762 C16.0517924,13.844671 16.6938641,14.2860953 17.5365832,14.8077785 C19.2220214,15.8110156 19.2220214,15.8110156 19.5029278,16.0517924 C19.9443521,16.4530872 20.1449995,16.7339936 20.1449995,17.0149 C20.1449995,17.5365832 19.5831868,17.937878 18.8207266,17.937878 C17.8977486,17.937878 16.8543821,17.4161948 15.5702387,16.3326988 C14.5670016,15.4498502 13.9650594,14.5670016 13.9650594,13.9249299 L13.9650594,13.9249299 Z M4.37411344,8.78835636 C4.37411344,10.5540535 4.61489033,12.2796212 5.05631462,13.2427288 C5.33722099,13.9249299 5.41747995,14.1255773 5.41747995,14.2459658 C5.41747995,14.6472606 4.93592617,14.7275196 3.04984056,14.7275196 C2.3275099,14.7275196 2.16699198,14.6071311 1.88608561,13.9249299 C1.28414339,12.4401391 1.04336651,10.7547009 1.04336651,8.42719103 C1.04336651,6.5812349 1.20388443,5.05631462 1.44466132,4.41424292 C1.64530872,3.93268915 1.92621509,3.8123007 2.7689342,3.8123007 L2.9695816,3.8123007 L3.57152382,3.8123007 C3.8123007,3.77217122 3.93268915,3.77217122 4.09320707,3.77217122 C4.57476084,3.77217122 5.01618514,4.05307759 5.01618514,4.29385448 L4.37411344,8.78835636 Z" id="☞-copy" fill="#191A1C" sketch:type="MSShapeGroup"></path>
            </g>
        </g>
    </g>
</svg>