<?xml version="1.0" encoding="UTF-8" standalone="no"?>
<svg width="27px" height="24px" viewBox="0 0 27 24" version="1.1" xmlns="http://www.w3.org/2000/svg" xmlns:xlink="http://www.w3.org/1999/xlink" xmlns:sketch="http://www.bohemiancoding.com/sketch/ns">
    <!-- Generator: Sketch 3.2.2 (9983) - http://www.bohemiancoding.com/sketch -->
    <title>✔︎</title>
    <desc>Created with Sketch.</desc>
    <defs></defs>
    <g id="Page-1" stroke="none" stroke-width="1" fill="none" fill-rule="evenodd" sketch:type="MSPage">
        <g id="1024" sketch:type="MSArtboardGroup" transform="translate(-888.000000, -172.000000)" fill="#FFFFFF">
            <path d="M914.489115,174.302666 C914.489115,175.583607 913.908868,176.831685 912.748357,178.046937 L912.567713,178.227582 L902.418767,188.918461 C900.261969,191.184742 898.425433,192.93643 896.909105,194.173579 C895.392777,195.410727 894.322605,196.029292 893.698557,196.029292 C893.041664,196.029292 892.226034,195.72001 891.251643,195.101436 C890.277251,194.482861 889.647738,193.845137 889.363085,193.188244 C889.122224,192.640834 888.895052,191.48034 888.681562,189.706729 C888.468072,187.933118 888.361328,186.011735 888.361328,183.942522 C888.361328,182.814856 888.832094,181.772054 889.773641,180.814085 C890.715188,179.856116 891.755252,179.377139 892.893867,179.377139 C893.97774,179.377139 894.623675,180.367938 894.831691,182.349565 C894.853588,182.579477 894.87001,182.749172 894.880958,182.858654 C895.05613,184.380456 895.258669,185.442417 895.488581,186.044569 C895.718494,186.646721 896.030513,186.947792 896.424649,186.947792 C896.588872,186.947792 896.895418,186.769887 897.344294,186.41407 C897.793171,186.058253 898.329626,185.573801 898.953674,184.960701 L909.381798,174.631111 C910.257655,173.755254 911.040441,173.092897 911.730178,172.64402 C912.419916,172.195143 913.005637,171.970708 913.487358,171.970708 C913.848649,171.970708 914.105929,172.107558 914.259204,172.381264 C914.412479,172.654969 914.489115,173.114787 914.489115,173.760732 L914.489115,174.302666 Z" id="✔︎" sketch:type="MSShapeGroup"></path>
        </g>
    </g>
</svg>