<?xml version="1.0" encoding="UTF-8" standalone="no"?>
<svg width="30px" height="31px" viewBox="0 0 30 31" version="1.1" xmlns="http://www.w3.org/2000/svg" xmlns:xlink="http://www.w3.org/1999/xlink" xmlns:sketch="http://www.bohemiancoding.com/sketch/ns">
    <!-- Generator: Sketch 3.3.2 (12043) - http://www.bohemiancoding.com/sketch -->
    <title>Artboard 21</title>
    <desc>Created with Sketch.</desc>
    <defs></defs>
    <g id="Page-1" stroke="none" stroke-width="1" fill="none" fill-rule="evenodd" sketch:type="MSPage">
        <g id="Artboard-21" sketch:type="MSArtboardGroup" stroke="#47484A">
            <path d="M13.1632164,16.4065124 L14.6605398,17.7053953 C14.7808073,17.7895826 14.8108738,17.903835 14.75074,18.0481561 C14.4500711,18.9742161 13.9569816,19.8281028 13.2714567,20.6098418 C13.1752426,20.7301094 13.0609902,20.7601758 12.9286959,20.700042 L11.0525317,20.0506006 C10.5714616,20.4354567 10.0543189,20.736121 9.50108822,20.9526026 L9.12224738,22.900927 C9.09819387,23.045248 9.01400785,23.129434 8.86968681,23.1534875 C8.3525364,23.2497016 7.85944689,23.2978079 7.39040349,23.2978079 C6.9213601,23.2978079 6.42827059,23.2497016 5.91112018,23.1534875 C5.76679913,23.129434 5.68261312,23.045248 5.65855961,22.900927 L5.27971877,20.9526026 C4.69040783,20.7240943 4.17326518,20.4234299 3.72827529,20.0506006 L1.85211108,20.700042 C1.71981679,20.7601758 1.60556435,20.7301094 1.50935032,20.6098418 C0.823825352,19.8281028 0.330735845,18.9742161 0.0300670013,18.0481561 C-0.0300667674,17.903835 -3.34074476e-07,17.7895826 0.120267203,17.7053953 L1.61759056,16.4065124 C1.56948354,16.1539506 1.5454304,15.8532863 1.5454304,15.5045104 C1.5454304,15.1557345 1.56948354,14.8550702 1.61759056,14.6025084 L0.120267203,13.3036255 C-3.34074476e-07,13.2194382 -0.0300667674,13.1051857 0.0300670013,12.9608647 C0.330735845,12.0348047 0.823825352,11.1809179 1.50935032,10.399179 C1.60556435,10.2789114 1.71981679,10.248845 1.85211108,10.3089788 L3.72827529,10.9584202 C4.17326518,10.5855908 4.69040783,10.2849265 5.27971877,10.0564182 L5.65855961,8.10809382 C5.68261312,7.96377277 5.76679913,7.87958676 5.91112018,7.85553325 C6.89731399,7.65107844 7.883493,7.65107844 8.86968681,7.85553325 C9.01400785,7.87958676 9.09819387,7.96377277 9.12224738,8.10809382 L9.50108822,10.0564182 C10.0543189,10.2728998 10.5714616,10.5735641 11.0525317,10.9584202 L12.9286959,10.3089788 C13.0609902,10.248845 13.1752426,10.2789114 13.2714567,10.399179 C13.9569816,11.1809179 14.4500711,12.0348047 14.75074,12.9608647 C14.8108738,13.1051857 14.7808073,13.2194382 14.6605398,13.3036255 L13.1632164,14.6025084 C13.2113234,14.8550702 13.2353766,15.1557345 13.2353766,15.5045104 C13.2353766,15.8532863 13.2113234,16.1539506 13.1632164,16.4065124 L13.1632164,16.4065124 Z M7.39040349,17.4423294 C7.92470194,17.4423294 8.38124116,17.2529354 8.76003484,16.8741417 C9.13882851,16.4953481 9.32822251,16.0388088 9.32822251,15.5045104 C9.32822251,14.9702119 9.13882851,14.5136727 8.76003484,14.1348791 C8.38124116,13.7560854 7.92470194,13.5666914 7.39040349,13.5666914 C6.85610505,13.5666914 6.39956583,13.7560854 6.02077215,14.1348791 C5.64197848,14.5136727 5.45258448,14.9702119 5.45258448,15.5045104 C5.45258448,16.0467834 5.63998486,16.5053163 6.01479123,16.8801227 C6.38959761,17.254929 6.84813044,17.4423294 7.39040349,17.4423294 L7.39040349,17.4423294 Z" id="cog" opacity="0.3" sketch:type="MSShapeGroup"></path>
            <path d="M28.1632164,16.4065124 L29.6605398,17.7053953 C29.7808073,17.7895826 29.8108738,17.903835 29.75074,18.0481561 C29.4500711,18.9742161 28.9569816,19.8281028 28.2714567,20.6098418 C28.1752426,20.7301094 28.0609902,20.7601758 27.9286959,20.700042 L26.0525317,20.0506006 C25.5714616,20.4354567 25.0543189,20.736121 24.5010882,20.9526026 L24.1222474,22.900927 C24.0981939,23.045248 24.0140079,23.129434 23.8696868,23.1534875 C23.3525364,23.2497016 22.8594469,23.2978079 22.3904035,23.2978079 C21.9213601,23.2978079 21.4282706,23.2497016 20.9111202,23.1534875 C20.7667991,23.129434 20.6826131,23.045248 20.6585596,22.900927 L20.2797188,20.9526026 C19.6904078,20.7240943 19.1732652,20.4234299 18.7282753,20.0506006 L16.8521111,20.700042 C16.7198168,20.7601758 16.6055643,20.7301094 16.5093503,20.6098418 C15.8238254,19.8281028 15.3307358,18.9742161 15.030067,18.0481561 C14.9699332,17.903835 14.9999997,17.7895826 15.1202672,17.7053953 L16.6175906,16.4065124 C16.5694835,16.1539506 16.5454304,15.8532863 16.5454304,15.5045104 C16.5454304,15.1557345 16.5694835,14.8550702 16.6175906,14.6025084 L15.1202672,13.3036255 C14.9999997,13.2194382 14.9699332,13.1051857 15.030067,12.9608647 C15.3307358,12.0348047 15.8238254,11.1809179 16.5093503,10.399179 C16.6055643,10.2789114 16.7198168,10.248845 16.8521111,10.3089788 L18.7282753,10.9584202 C19.1732652,10.5855908 19.6904078,10.2849265 20.2797188,10.0564182 L20.6585596,8.10809382 C20.6826131,7.96377277 20.7667991,7.87958676 20.9111202,7.85553325 C21.897314,7.65107844 22.883493,7.65107844 23.8696868,7.85553325 C24.0140079,7.87958676 24.0981939,7.96377277 24.1222474,8.10809382 L24.5010882,10.0564182 C25.0543189,10.2728998 25.5714616,10.5735641 26.0525317,10.9584202 L27.9286959,10.3089788 C28.0609902,10.248845 28.1752426,10.2789114 28.2714567,10.399179 C28.9569816,11.1809179 29.4500711,12.0348047 29.75074,12.9608647 C29.8108738,13.1051857 29.7808073,13.2194382 29.6605398,13.3036255 L28.1632164,14.6025084 C28.2113234,14.8550702 28.2353766,15.1557345 28.2353766,15.5045104 C28.2353766,15.8532863 28.2113234,16.1539506 28.1632164,16.4065124 L28.1632164,16.4065124 Z M22.3904035,17.4423294 C22.9247019,17.4423294 23.3812412,17.2529354 23.7600348,16.8741417 C24.1388285,16.4953481 24.3282225,16.0388088 24.3282225,15.5045104 C24.3282225,14.9702119 24.1388285,14.5136727 23.7600348,14.1348791 C23.3812412,13.7560854 22.9247019,13.5666914 22.3904035,13.5666914 C21.856105,13.5666914 21.3995658,13.7560854 21.0207722,14.1348791 C20.6419785,14.5136727 20.4525845,14.9702119 20.4525845,15.5045104 C20.4525845,16.0467834 20.6399849,16.5053163 21.0147912,16.8801227 C21.3895976,17.254929 21.8481304,17.4423294 22.3904035,17.4423294 L22.3904035,17.4423294 Z" id="cog-copy" opacity="0.796641791" sketch:type="MSShapeGroup"></path>
        </g>
    </g>
</svg>