<?xml version="1.0" encoding="UTF-8" standalone="no"?>
<svg width="1008px" height="263px" viewBox="0 0 1008 263" version="1.1" xmlns="http://www.w3.org/2000/svg" xmlns:xlink="http://www.w3.org/1999/xlink" xmlns:sketch="http://www.bohemiancoding.com/sketch/ns">
    <!-- Generator: Sketch 3.2.2 (9983) - http://www.bohemiancoding.com/sketch -->
    <title>TAGS</title>
    <desc>Created with Sketch.</desc>
    <defs></defs>
    <g id="Page-1" stroke="none" stroke-width="1" fill="none" fill-rule="evenodd" sketch:type="MSPage">
        <g id="1024" sketch:type="MSArtboardGroup" transform="translate(-7.000000, 0.000000)" fill="#000000" opacity="0.0700000003">
            <path d="M77.5122793,258.396461 L153.010327,258.396461 L153.010327,66.4288635 L223.444481,66.4288635 L223.444481,1.51895654 L7.078125,1.51895654 L7.078125,66.4288635 L77.5122793,66.4288635 L77.5122793,258.396461 Z M219.991827,258.396461 L296.870936,258.396461 L308.840139,221.568145 L399.529867,221.568145 L411.959424,258.396461 L490.219595,258.396461 L396.767743,1.51895654 L313.904033,1.51895654 L219.991827,258.396461 Z M324.952527,166.325671 L353.954826,75.6359425 L382.957125,166.325671 L324.952527,166.325671 Z M624.873126,263 C656.177194,263 681.957015,254.483452 696.688342,234.918409 L696.688342,258.396461 L753.772231,258.396461 L753.772231,119.369568 L630.857727,119.369568 L630.857727,170.92921 L679.655246,170.92921 C678.044007,178.064696 673.900821,184.739829 666.765335,190.954607 C659.629849,197.169385 648.351177,200.391863 632.699143,200.391863 C584.822332,200.391863 574.694545,163.563547 574.694545,129.957709 C574.694545,95.6613393 584.822332,60.9046161 628.555957,60.9046161 C654.335778,60.9046161 667.455866,73.5643497 673.670644,88.986207 L750.0894,88.986207 C740.19179,26.3780698 690.013209,-3.08458296 628.555957,-3.08458296 C548.684547,-3.08458296 498.275789,42.720635 498.275789,129.957709 C498.275789,217.194782 549.144901,263 624.873126,263 L624.873126,263 Z M783.234884,176.913811 C785.766831,225.481153 824.66674,263 901.545849,263 C977.734428,263 1014.33257,227.782923 1014.33257,181.056997 C1014.33257,139.855318 989.243277,116.14709 940.215581,103.257179 L888.195585,89.9069149 C870.471958,85.0731984 863.796825,79.0885971 863.796825,70.572049 C863.796825,60.2140851 873.234081,52.618245 892.799124,52.618245 C912.364167,52.618245 927.786025,62.0555009 929.62744,81.1601898 L1006.0462,81.1601898 C1001.21248,26.6082468 962.542748,-3.08458296 895.561248,-3.08458296 C824.436563,-3.08458296 788.759132,31.4419633 788.759132,77.0170043 C788.759132,116.837621 812.007006,143.077796 862.415764,155.277176 L915.356468,168.62744 C933.080095,173.461157 939.294873,178.985404 939.294873,188.883014 C939.294873,193.256377 936.993103,197.399562 932.159387,201.312571 C927.325671,205.225579 918.578946,207.297172 905.689035,207.297172 C879.218683,207.297172 862.185587,196.478854 859.65364,176.913811 L783.234884,176.913811 Z" id="TAGS" sketch:type="MSShapeGroup"></path>
        </g>
    </g>
</svg>