<?xml version="1.0" encoding="UTF-8" standalone="no"?>
<svg width="1011px" height="174px" viewBox="0 0 1011 174" version="1.1" xmlns="http://www.w3.org/2000/svg" xmlns:xlink="http://www.w3.org/1999/xlink" xmlns:sketch="http://www.bohemiancoding.com/sketch/ns">
    <!-- Generator: Sketch 3.2.2 (9983) - http://www.bohemiancoding.com/sketch -->
    <title>UPLOAD</title>
    <desc>Created with Sketch.</desc>
    <defs></defs>
    <g id="Page-1" stroke="none" stroke-width="1" fill="none" fill-rule="evenodd" sketch:type="MSPage">
        <g id="1024" sketch:type="MSArtboardGroup" transform="translate(-2.000000, -3.000000)" fill="#FFFFFF">
            <path d="M2.0390625,106.324219 C2.0390625,156.103516 31.2148438,177.007812 79.640625,177.007812 C103.853516,177.007812 122.953125,171.443359 136.638672,160.314453 C150.324219,149.185547 157.242188,131.138672 157.242188,106.023438 L157.242188,6.1640625 L107.914062,6.1640625 L107.914062,103.316406 C107.914062,124.972656 98.890625,134.296875 79.640625,134.296875 C60.390625,134.296875 51.3671875,124.972656 51.3671875,103.316406 L51.3671875,6.1640625 L2.0390625,6.1640625 L2.0390625,106.324219 Z M190.328125,174 L239.65625,174 L239.65625,126.175781 L253.792969,126.175781 C304.023438,126.175781 336.207031,108.580078 336.207031,66.3203125 C336.207031,24.3613281 304.023438,6.1640625 253.792969,6.1640625 L190.328125,6.1640625 L190.328125,174 Z M239.65625,86.7734375 L239.65625,45.8671875 L255.296875,45.8671875 C275.298828,45.8671875 285.074219,51.1308594 285.074219,66.3203125 C285.074219,81.5097656 275.298828,86.7734375 255.296875,86.7734375 L239.65625,86.7734375 Z M360.269531,174 L479.980469,174 L479.980469,131.589844 L409.597656,131.589844 L409.597656,6.1640625 L360.269531,6.1640625 L360.269531,174 Z M575.628906,134.296875 C547.505859,134.296875 541.640625,112.039062 541.640625,90.0820312 C541.640625,68.125 547.505859,45.8671875 575.628906,45.8671875 C603.751953,45.8671875 609.617188,68.125 609.617188,90.0820312 C609.617188,112.039062 603.751953,134.296875 575.628906,134.296875 L575.628906,134.296875 Z M575.628906,177.007812 C632.626953,177.007812 660.75,141.966797 660.75,90.0820312 C660.75,38.1972656 632.626953,3.15625 575.628906,3.15625 C518.630859,3.15625 490.507812,38.1972656 490.507812,90.0820312 C490.507812,141.966797 518.630859,177.007812 575.628906,177.007812 L575.628906,177.007812 Z M666.013672,174 L716.244141,174 L724.064453,149.9375 L783.318359,149.9375 L791.439453,174 L842.572266,174 L781.513672,6.1640625 L727.373047,6.1640625 L666.013672,174 Z M734.591797,113.84375 L753.541016,54.5898438 L772.490234,113.84375 L734.591797,113.84375 Z M859.115234,174 L924.384766,174 C984.240234,174 1012.81445,140.3125 1012.81445,90.0820312 C1012.81445,39.8515625 984.240234,6.1640625 924.384766,6.1640625 L859.115234,6.1640625 L859.115234,174 Z M908.443359,134.296875 L908.443359,45.8671875 L923.181641,45.8671875 C955.214844,45.8671875 961.681641,68.7265625 961.681641,90.0820312 C961.681641,111.4375 955.214844,134.296875 923.181641,134.296875 L908.443359,134.296875 Z" id="UPLOAD" sketch:type="MSShapeGroup"></path>
        </g>
    </g>
</svg>